<svg width="195" height="62" viewBox="0 0 195 62" fill="none" xmlns="http://www.w3.org/2000/svg">
<path d="M0 0H195V62H0V0Z" fill="#AC1313"/>
<path d="M48.28 35H46.228L42.796 29.804V35H40.744V26.576H42.796L46.228 31.796V26.576H48.28V35ZM52.8194 28.22V29.924H55.5674V31.508H52.8194V33.356H55.9274V35H50.7674V26.576H55.9274V28.22H52.8194ZM69.8516 26.576L67.6556 35H65.1716L63.8276 29.456L62.4356 35H59.9516L57.8156 26.576H60.0116L61.2236 32.708L62.7236 26.576H64.9796L66.4196 32.708L67.6436 26.576H69.8516ZM75.0757 30.776C75.0757 29.944 75.2557 29.204 75.6157 28.556C75.9757 27.9 76.4757 27.392 77.1157 27.032C77.7637 26.664 78.4957 26.48 79.3117 26.48C80.3117 26.48 81.1677 26.744 81.8797 27.272C82.5917 27.8 83.0677 28.52 83.3077 29.432H81.0517C80.8837 29.08 80.6437 28.812 80.3317 28.628C80.0277 28.444 79.6797 28.352 79.2877 28.352C78.6557 28.352 78.1437 28.572 77.7517 29.012C77.3597 29.452 77.1637 30.04 77.1637 30.776C77.1637 31.512 77.3597 32.1 77.7517 32.54C78.1437 32.98 78.6557 33.2 79.2877 33.2C79.6797 33.2 80.0277 33.108 80.3317 32.924C80.6437 32.74 80.8837 32.472 81.0517 32.12H83.3077C83.0677 33.032 82.5917 33.752 81.8797 34.28C81.1677 34.8 80.3117 35.06 79.3117 35.06C78.4957 35.06 77.7637 34.88 77.1157 34.52C76.4757 34.152 75.9757 33.644 75.6157 32.996C75.2557 32.348 75.0757 31.608 75.0757 30.776ZM89.5483 35.084C88.7563 35.084 88.0283 34.9 87.3643 34.532C86.7083 34.164 86.1843 33.652 85.7923 32.996C85.4083 32.332 85.2163 31.588 85.2163 30.764C85.2163 29.94 85.4083 29.2 85.7923 28.544C86.1843 27.888 86.7083 27.376 87.3643 27.008C88.0283 26.64 88.7563 26.456 89.5483 26.456C90.3403 26.456 91.0643 26.64 91.7203 27.008C92.3843 27.376 92.9043 27.888 93.2803 28.544C93.6643 29.2 93.8563 29.94 93.8563 30.764C93.8563 31.588 93.6643 32.332 93.2803 32.996C92.8963 33.652 92.3763 34.164 91.7203 34.532C91.0643 34.9 90.3403 35.084 89.5483 35.084ZM89.5483 33.212C90.2203 33.212 90.7563 32.988 91.1563 32.54C91.5643 32.092 91.7683 31.5 91.7683 30.764C91.7683 30.02 91.5643 29.428 91.1563 28.988C90.7563 28.54 90.2203 28.316 89.5483 28.316C88.8683 28.316 88.3243 28.536 87.9163 28.976C87.5163 29.416 87.3163 30.012 87.3163 30.764C87.3163 31.508 87.5163 32.104 87.9163 32.552C88.3243 32.992 88.8683 33.212 89.5483 33.212ZM98.0499 33.416H100.738V35H95.9979V26.576H98.0499V33.416ZM104.769 33.416H107.457V35H102.717V26.576H104.769V33.416ZM111.487 28.22V29.924H114.235V31.508H111.487V33.356H114.595V35H109.435V26.576H114.595V28.22H111.487ZM116.58 30.776C116.58 29.944 116.76 29.204 117.12 28.556C117.48 27.9 117.98 27.392 118.62 27.032C119.268 26.664 120 26.48 120.816 26.48C121.816 26.48 122.672 26.744 123.384 27.272C124.096 27.8 124.572 28.52 124.812 29.432H122.556C122.388 29.08 122.148 28.812 121.836 28.628C121.532 28.444 121.184 28.352 120.792 28.352C120.16 28.352 119.648 28.572 119.256 29.012C118.864 29.452 118.668 30.04 118.668 30.776C118.668 31.512 118.864 32.1 119.256 32.54C119.648 32.98 120.16 33.2 120.792 33.2C121.184 33.2 121.532 33.108 121.836 32.924C122.148 32.74 122.388 32.472 122.556 32.12H124.812C124.572 33.032 124.096 33.752 123.384 34.28C122.672 34.8 121.816 35.06 120.816 35.06C120 35.06 119.268 34.88 118.62 34.52C117.98 34.152 117.48 33.644 117.12 32.996C116.76 32.348 116.58 31.608 116.58 30.776ZM133.128 26.576V28.22H130.896V35H128.844V28.22H126.612V26.576H133.128ZM137.21 26.576V35H135.158V26.576H137.21ZM143.681 35.084C142.889 35.084 142.161 34.9 141.497 34.532C140.841 34.164 140.317 33.652 139.925 32.996C139.541 32.332 139.349 31.588 139.349 30.764C139.349 29.94 139.541 29.2 139.925 28.544C140.317 27.888 140.841 27.376 141.497 27.008C142.161 26.64 142.889 26.456 143.681 26.456C144.473 26.456 145.197 26.64 145.853 27.008C146.517 27.376 147.037 27.888 147.413 28.544C147.797 29.2 147.989 29.94 147.989 30.764C147.989 31.588 147.797 32.332 147.413 32.996C147.029 33.652 146.509 34.164 145.853 34.532C145.197 34.9 144.473 35.084 143.681 35.084ZM143.681 33.212C144.353 33.212 144.889 32.988 145.289 32.54C145.697 32.092 145.901 31.5 145.901 30.764C145.901 30.02 145.697 29.428 145.289 28.988C144.889 28.54 144.353 28.316 143.681 28.316C143.001 28.316 142.457 28.536 142.049 28.976C141.649 29.416 141.449 30.012 141.449 30.764C141.449 31.508 141.649 32.104 142.049 32.552C142.457 32.992 143.001 33.212 143.681 33.212ZM157.667 35H155.615L152.183 29.804V35H150.131V26.576H152.183L155.615 31.796V26.576H157.667V35Z" fill="white"/>
</svg>
