<svg width="214" height="62" viewBox="0 0 214 62" fill="none" xmlns="http://www.w3.org/2000/svg">
<path d="M0 0H214V62H0V0Z" fill="#AC1313"/>
<path d="M53.486 26.576L50.498 35H47.93L44.942 26.576H47.126L49.214 32.936L51.314 26.576H53.486ZM57.3956 26.576V35H55.3436V26.576H57.3956ZM61.9347 28.22V29.924H64.6827V31.508H61.9347V33.356H65.0427V35H59.8827V26.576H65.0427V28.22H61.9347ZM78.9669 26.576L76.7709 35H74.2869L72.9429 29.456L71.5509 35H69.0669L66.9309 26.576H69.1269L70.3389 32.708L71.8389 26.576H74.0949L75.5349 32.708L76.7589 26.576H78.9669ZM89.7829 33.512H86.6389L86.1349 35H83.9869L87.0349 26.576H89.4109L92.4589 35H90.2869L89.7829 33.512ZM89.2549 31.928L88.2109 28.844L87.1789 31.928H89.2549ZM96.4386 33.416H99.1266V35H94.3866V26.576H96.4386V33.416ZM103.157 33.416H105.845V35H101.105V26.576H103.157V33.416ZM117.787 29.288C117.787 29.776 117.675 30.224 117.451 30.632C117.227 31.032 116.883 31.356 116.419 31.604C115.955 31.852 115.379 31.976 114.691 31.976H113.419V35H111.367V26.576H114.691C115.363 26.576 115.931 26.692 116.395 26.924C116.859 27.156 117.207 27.476 117.439 27.884C117.671 28.292 117.787 28.76 117.787 29.288ZM114.535 30.344C114.927 30.344 115.219 30.252 115.411 30.068C115.603 29.884 115.699 29.624 115.699 29.288C115.699 28.952 115.603 28.692 115.411 28.508C115.219 28.324 114.927 28.232 114.535 28.232H113.419V30.344H114.535ZM124.151 35L122.399 31.82H121.907V35H119.855V26.576H123.299C123.963 26.576 124.527 26.692 124.991 26.924C125.463 27.156 125.815 27.476 126.047 27.884C126.279 28.284 126.395 28.732 126.395 29.228C126.395 29.788 126.235 30.288 125.915 30.728C125.603 31.168 125.139 31.48 124.523 31.664L126.467 35H124.151ZM121.907 30.368H123.179C123.555 30.368 123.835 30.276 124.019 30.092C124.211 29.908 124.307 29.648 124.307 29.312C124.307 28.992 124.211 28.74 124.019 28.556C123.835 28.372 123.555 28.28 123.179 28.28H121.907V30.368ZM132.667 35.084C131.875 35.084 131.147 34.9 130.483 34.532C129.827 34.164 129.303 33.652 128.911 32.996C128.527 32.332 128.335 31.588 128.335 30.764C128.335 29.94 128.527 29.2 128.911 28.544C129.303 27.888 129.827 27.376 130.483 27.008C131.147 26.64 131.875 26.456 132.667 26.456C133.459 26.456 134.183 26.64 134.839 27.008C135.503 27.376 136.023 27.888 136.399 28.544C136.783 29.2 136.975 29.94 136.975 30.764C136.975 31.588 136.783 32.332 136.399 32.996C136.015 33.652 135.495 34.164 134.839 34.532C134.183 34.9 133.459 35.084 132.667 35.084ZM132.667 33.212C133.339 33.212 133.875 32.988 134.275 32.54C134.683 32.092 134.887 31.5 134.887 30.764C134.887 30.02 134.683 29.428 134.275 28.988C133.875 28.54 133.339 28.316 132.667 28.316C131.987 28.316 131.443 28.536 131.035 28.976C130.635 29.416 130.435 30.012 130.435 30.764C130.435 31.508 130.635 32.104 131.035 32.552C131.443 32.992 131.987 33.212 132.667 33.212ZM142.273 26.576C143.161 26.576 143.937 26.752 144.601 27.104C145.265 27.456 145.777 27.952 146.137 28.592C146.505 29.224 146.689 29.956 146.689 30.788C146.689 31.612 146.505 32.344 146.137 32.984C145.777 33.624 145.261 34.12 144.589 34.472C143.925 34.824 143.153 35 142.273 35H139.117V26.576H142.273ZM142.141 33.224C142.917 33.224 143.521 33.012 143.953 32.588C144.385 32.164 144.601 31.564 144.601 30.788C144.601 30.012 144.385 29.408 143.953 28.976C143.521 28.544 142.917 28.328 142.141 28.328H141.169V33.224H142.141ZM150.852 26.576V31.616C150.852 32.12 150.976 32.508 151.224 32.78C151.472 33.052 151.836 33.188 152.316 33.188C152.796 33.188 153.164 33.052 153.42 32.78C153.676 32.508 153.804 32.12 153.804 31.616V26.576H155.856V31.604C155.856 32.356 155.696 32.992 155.376 33.512C155.056 34.032 154.624 34.424 154.08 34.688C153.544 34.952 152.944 35.084 152.28 35.084C151.616 35.084 151.02 34.956 150.492 34.7C149.972 34.436 149.56 34.044 149.256 33.524C148.952 32.996 148.8 32.356 148.8 31.604V26.576H150.852ZM157.949 30.776C157.949 29.944 158.129 29.204 158.489 28.556C158.849 27.9 159.349 27.392 159.989 27.032C160.637 26.664 161.369 26.48 162.185 26.48C163.185 26.48 164.041 26.744 164.753 27.272C165.465 27.8 165.941 28.52 166.181 29.432H163.925C163.757 29.08 163.517 28.812 163.205 28.628C162.901 28.444 162.553 28.352 162.161 28.352C161.529 28.352 161.017 28.572 160.625 29.012C160.233 29.452 160.037 30.04 160.037 30.776C160.037 31.512 160.233 32.1 160.625 32.54C161.017 32.98 161.529 33.2 162.161 33.2C162.553 33.2 162.901 33.108 163.205 32.924C163.517 32.74 163.757 32.472 163.925 32.12H166.181C165.941 33.032 165.465 33.752 164.753 34.28C164.041 34.8 163.185 35.06 162.185 35.06C161.369 35.06 160.637 34.88 159.989 34.52C159.349 34.152 158.849 33.644 158.489 32.996C158.129 32.348 157.949 31.608 157.949 30.776ZM174.497 26.576V28.22H172.265V35H170.213V28.22H167.981V26.576H174.497ZM179.575 35.084C178.959 35.084 178.407 34.984 177.919 34.784C177.431 34.584 177.039 34.288 176.743 33.896C176.455 33.504 176.303 33.032 176.287 32.48H178.471C178.503 32.792 178.611 33.032 178.795 33.2C178.979 33.36 179.219 33.44 179.515 33.44C179.819 33.44 180.059 33.372 180.235 33.236C180.411 33.092 180.499 32.896 180.499 32.648C180.499 32.44 180.427 32.268 180.283 32.132C180.147 31.996 179.975 31.884 179.767 31.796C179.567 31.708 179.279 31.608 178.903 31.496C178.359 31.328 177.915 31.16 177.571 30.992C177.227 30.824 176.931 30.576 176.683 30.248C176.435 29.92 176.311 29.492 176.311 28.964C176.311 28.18 176.595 27.568 177.163 27.128C177.731 26.68 178.471 26.456 179.383 26.456C180.311 26.456 181.059 26.68 181.627 27.128C182.195 27.568 182.499 28.184 182.539 28.976H180.319C180.303 28.704 180.203 28.492 180.019 28.34C179.835 28.18 179.599 28.1 179.311 28.1C179.063 28.1 178.863 28.168 178.711 28.304C178.559 28.432 178.483 28.62 178.483 28.868C178.483 29.14 178.611 29.352 178.867 29.504C179.123 29.656 179.523 29.82 180.067 29.996C180.611 30.18 181.051 30.356 181.387 30.524C181.731 30.692 182.027 30.936 182.275 31.256C182.523 31.576 182.647 31.988 182.647 32.492C182.647 32.972 182.523 33.408 182.275 33.8C182.035 34.192 181.683 34.504 181.219 34.736C180.755 34.968 180.207 35.084 179.575 35.084Z" fill="white"/>
</svg>
