<svg width="1440" height="85" viewBox="0 0 1440 85" fill="none" xmlns="http://www.w3.org/2000/svg">
<path d="M0 0H1440V85H0V0Z" fill="#DBDBDB" fill-opacity="0.1"/>
<path d="M617.203 39.096C617.259 39.096 617.375 39.096 617.551 39.096C617.727 39.096 617.919 39.1 618.127 39.108C618.335 39.108 618.527 39.108 618.703 39.108C618.879 39.108 619.003 39.108 619.075 39.108C620.187 39.124 621.083 39.3 621.763 39.636C622.451 39.972 622.951 40.46 623.263 41.1C623.583 41.74 623.743 42.532 623.743 43.476C623.743 44.476 623.571 45.312 623.227 45.984C622.883 46.656 622.355 47.16 621.643 47.496C620.931 47.832 620.035 48 618.955 48H617.191C617.079 48 617.023 47.936 617.023 47.808V39.264C617.023 39.208 617.035 39.168 617.059 39.144C617.091 39.112 617.139 39.096 617.203 39.096ZM618.295 39.972C618.215 39.972 618.175 40.028 618.175 40.14V47.004C618.175 47.092 618.223 47.136 618.319 47.136H618.775C619.663 47.136 620.383 47.02 620.935 46.788C621.487 46.548 621.891 46.164 622.147 45.636C622.411 45.108 622.543 44.408 622.543 43.536C622.543 42.624 622.407 41.912 622.135 41.4C621.871 40.88 621.463 40.512 620.911 40.296C620.367 40.08 619.675 39.972 618.835 39.972H618.295ZM628.108 48.12C627.508 48.12 626.976 47.984 626.512 47.712C626.056 47.432 625.7 47.048 625.444 46.56C625.196 46.064 625.072 45.496 625.072 44.856C625.072 44.192 625.2 43.612 625.456 43.116C625.72 42.612 626.08 42.22 626.536 41.94C626.992 41.66 627.52 41.52 628.12 41.52C628.728 41.52 629.256 41.664 629.704 41.952C630.16 42.232 630.512 42.624 630.76 43.128C631.016 43.624 631.144 44.196 631.144 44.844C631.144 45.484 631.016 46.052 630.76 46.548C630.504 47.036 630.148 47.42 629.692 47.7C629.244 47.98 628.716 48.12 628.108 48.12ZM628.132 47.364C628.548 47.364 628.904 47.264 629.2 47.064C629.496 46.856 629.72 46.564 629.872 46.188C630.032 45.804 630.112 45.348 630.112 44.82C630.112 44.292 630.032 43.84 629.872 43.464C629.712 43.08 629.484 42.784 629.188 42.576C628.892 42.368 628.536 42.264 628.12 42.264C627.712 42.264 627.356 42.368 627.052 42.576C626.748 42.784 626.512 43.08 626.344 43.464C626.184 43.84 626.104 44.292 626.104 44.82C626.104 45.34 626.184 45.792 626.344 46.176C626.512 46.56 626.748 46.856 627.052 47.064C627.356 47.264 627.716 47.364 628.132 47.364ZM632.795 48C632.739 48 632.695 47.988 632.663 47.964C632.639 47.932 632.627 47.892 632.627 47.844V41.796C632.627 41.692 632.671 41.64 632.759 41.64H633.455C633.543 41.64 633.587 41.684 633.587 41.772V42.552C633.587 42.6 633.599 42.628 633.623 42.636C633.647 42.644 633.679 42.628 633.719 42.588C633.927 42.34 634.131 42.14 634.331 41.988C634.539 41.828 634.747 41.712 634.955 41.64C635.163 41.56 635.371 41.52 635.579 41.52C635.859 41.52 635.999 41.572 635.999 41.676V42.396C635.999 42.476 635.963 42.508 635.891 42.492C635.819 42.484 635.735 42.476 635.639 42.468C635.551 42.46 635.455 42.456 635.351 42.456C635.175 42.456 634.987 42.496 634.787 42.576C634.587 42.648 634.399 42.752 634.223 42.888C634.055 43.024 633.915 43.176 633.803 43.344C633.691 43.512 633.635 43.68 633.635 43.848V47.82C633.635 47.94 633.575 48 633.455 48H632.795ZM638.229 47.796C638.229 47.876 638.213 47.932 638.181 47.964C638.157 47.988 638.101 48 638.013 48H637.401C637.329 48 637.281 47.988 637.257 47.964C637.233 47.94 637.221 47.896 637.221 47.832V41.808C637.221 41.696 637.269 41.64 637.365 41.64H638.097C638.185 41.64 638.229 41.692 638.229 41.796V47.796ZM638.277 40.272C638.277 40.424 638.205 40.5 638.061 40.5H637.365C637.293 40.5 637.245 40.484 637.221 40.452C637.197 40.412 637.185 40.36 637.185 40.296V39.288C637.185 39.16 637.241 39.096 637.353 39.096H638.109C638.221 39.096 638.277 39.156 638.277 39.276V40.272ZM643.752 47.232C643.456 47.52 643.132 47.74 642.78 47.892C642.436 48.044 642.048 48.12 641.616 48.12C640.992 48.12 640.5 47.96 640.14 47.64C639.788 47.32 639.612 46.9 639.612 46.38C639.612 45.956 639.732 45.592 639.972 45.288C640.212 44.976 640.568 44.732 641.04 44.556C641.512 44.372 642.092 44.26 642.78 44.22L643.716 44.148C643.764 44.14 643.808 44.124 643.848 44.1C643.888 44.076 643.908 44.032 643.908 43.968V43.644C643.908 43.212 643.772 42.872 643.5 42.624C643.236 42.368 642.876 42.24 642.42 42.24C642.068 42.24 641.748 42.32 641.46 42.48C641.18 42.64 640.928 42.88 640.704 43.2C640.672 43.24 640.644 43.268 640.62 43.284C640.604 43.292 640.572 43.288 640.524 43.272L639.876 43.056C639.852 43.04 639.832 43.02 639.816 42.996C639.808 42.972 639.82 42.928 639.852 42.864C640.092 42.448 640.428 42.12 640.86 41.88C641.3 41.64 641.836 41.52 642.468 41.52C643.004 41.52 643.448 41.604 643.8 41.772C644.16 41.932 644.428 42.168 644.604 42.48C644.788 42.784 644.88 43.148 644.88 43.572V47.82C644.88 47.892 644.868 47.94 644.844 47.964C644.82 47.988 644.78 48 644.724 48H644.112C644.056 48 644.016 47.984 643.992 47.952C643.968 47.912 643.952 47.864 643.944 47.808L643.932 47.256C643.908 47.144 643.848 47.136 643.752 47.232ZM643.908 44.952C643.908 44.816 643.852 44.752 643.74 44.76L642.948 44.832C642.58 44.848 642.252 44.896 641.964 44.976C641.676 45.048 641.432 45.144 641.232 45.264C641.032 45.384 640.88 45.528 640.776 45.696C640.672 45.856 640.62 46.044 640.62 46.26C640.62 46.612 640.74 46.888 640.98 47.088C641.228 47.28 641.56 47.376 641.976 47.376C642.232 47.376 642.476 47.332 642.708 47.244C642.948 47.148 643.156 47.028 643.332 46.884C643.516 46.732 643.656 46.576 643.752 46.416C643.856 46.256 643.908 46.1 643.908 45.948V44.952ZM646.834 48C646.722 48 646.666 47.948 646.666 47.844V41.796C646.666 41.692 646.71 41.64 646.798 41.64H647.518C647.606 41.64 647.65 41.684 647.65 41.772V42.468C647.65 42.508 647.658 42.532 647.674 42.54C647.69 42.548 647.718 42.536 647.758 42.504C648.022 42.296 648.266 42.12 648.49 41.976C648.722 41.824 648.958 41.712 649.198 41.64C649.438 41.56 649.694 41.52 649.966 41.52C650.59 41.52 651.066 41.688 651.394 42.024C651.73 42.36 651.898 42.796 651.898 43.332V47.808C651.898 47.936 651.838 48 651.718 48H651.046C650.99 48 650.95 47.988 650.926 47.964C650.902 47.932 650.89 47.892 650.89 47.844V43.56C650.89 43.168 650.79 42.864 650.59 42.648C650.39 42.424 650.074 42.312 649.642 42.312C649.41 42.312 649.19 42.352 648.982 42.432C648.782 42.504 648.578 42.612 648.37 42.756C648.162 42.892 647.93 43.068 647.674 43.284V47.82C647.674 47.94 647.614 48 647.494 48H646.834ZM657.728 43.836C657.664 43.836 657.632 43.868 657.632 43.932V47.82C657.632 47.94 657.564 48 657.428 48H656.648C656.584 48 656.54 47.988 656.516 47.964C656.492 47.932 656.48 47.888 656.48 47.832V39.264C656.48 39.152 656.528 39.096 656.624 39.096H657.488C657.584 39.096 657.632 39.148 657.632 39.252V42.78C657.632 42.876 657.676 42.924 657.764 42.924H661.7C661.78 42.924 661.82 42.876 661.82 42.78V39.24C661.82 39.144 661.864 39.096 661.952 39.096H662.828C662.924 39.096 662.972 39.152 662.972 39.264V47.832C662.972 47.888 662.96 47.932 662.936 47.964C662.912 47.988 662.868 48 662.804 48H662.024C661.888 48 661.82 47.94 661.82 47.82V43.944C661.82 43.872 661.784 43.836 661.712 43.836H657.728ZM667.729 48.12C667.129 48.12 666.597 47.984 666.133 47.712C665.677 47.432 665.321 47.048 665.065 46.56C664.817 46.064 664.693 45.496 664.693 44.856C664.693 44.192 664.821 43.612 665.077 43.116C665.341 42.612 665.701 42.22 666.157 41.94C666.613 41.66 667.141 41.52 667.741 41.52C668.349 41.52 668.877 41.664 669.325 41.952C669.781 42.232 670.133 42.624 670.381 43.128C670.637 43.624 670.765 44.196 670.765 44.844C670.765 45.484 670.637 46.052 670.381 46.548C670.125 47.036 669.769 47.42 669.313 47.7C668.865 47.98 668.337 48.12 667.729 48.12ZM667.753 47.364C668.169 47.364 668.525 47.264 668.821 47.064C669.117 46.856 669.341 46.564 669.493 46.188C669.653 45.804 669.733 45.348 669.733 44.82C669.733 44.292 669.653 43.84 669.493 43.464C669.333 43.08 669.105 42.784 668.809 42.576C668.513 42.368 668.157 42.264 667.741 42.264C667.333 42.264 666.977 42.368 666.673 42.576C666.369 42.784 666.133 43.08 665.965 43.464C665.805 43.84 665.725 44.292 665.725 44.82C665.725 45.34 665.805 45.792 665.965 46.176C666.133 46.56 666.369 46.856 666.673 47.064C666.977 47.264 667.337 47.364 667.753 47.364ZM677.011 47.748C677.075 47.844 677.103 47.912 677.095 47.952C677.087 47.984 677.043 48 676.963 48H676.123C676.003 48 675.919 47.964 675.871 47.892L674.179 45.564C674.139 45.508 674.103 45.48 674.071 45.48C674.047 45.472 674.015 45.5 673.975 45.564L672.211 47.892C672.163 47.964 672.079 48 671.959 48H671.395C671.315 48 671.259 47.98 671.227 47.94C671.195 47.892 671.223 47.816 671.311 47.712L673.495 44.928C673.535 44.872 673.551 44.828 673.543 44.796C673.543 44.756 673.527 44.712 673.495 44.664L671.395 41.832C671.371 41.792 671.367 41.752 671.383 41.712C671.407 41.664 671.447 41.64 671.503 41.64H672.307C672.371 41.64 672.415 41.648 672.439 41.664C672.471 41.68 672.503 41.708 672.535 41.748L674.155 43.944C674.219 44.032 674.279 44.032 674.335 43.944L675.907 41.748C675.939 41.708 675.971 41.68 676.003 41.664C676.035 41.648 676.083 41.64 676.147 41.64H676.771C676.843 41.64 676.879 41.66 676.879 41.7C676.887 41.732 676.875 41.768 676.843 41.808L674.815 44.52C674.775 44.568 674.755 44.612 674.755 44.652C674.763 44.692 674.783 44.736 674.815 44.784L677.011 47.748ZM678.51 48C678.406 48 678.354 47.948 678.354 47.844V39.252C678.354 39.148 678.398 39.096 678.486 39.096H679.194C679.282 39.096 679.326 39.144 679.326 39.24V42.444C679.326 42.484 679.334 42.508 679.35 42.516C679.366 42.524 679.394 42.512 679.434 42.48C679.714 42.264 679.97 42.084 680.202 41.94C680.442 41.796 680.674 41.692 680.898 41.628C681.13 41.556 681.382 41.52 681.654 41.52C682.278 41.52 682.754 41.688 683.082 42.024C683.41 42.352 683.574 42.792 683.574 43.344V47.808C683.574 47.936 683.514 48 683.394 48H682.722C682.666 48 682.626 47.988 682.602 47.964C682.578 47.932 682.566 47.892 682.566 47.844V43.56C682.566 43.168 682.466 42.864 682.266 42.648C682.066 42.424 681.75 42.312 681.318 42.312C681.086 42.312 680.866 42.352 680.658 42.432C680.458 42.504 680.254 42.612 680.046 42.756C679.838 42.892 679.61 43.068 679.362 43.284V47.82C679.362 47.94 679.298 48 679.17 48H678.51ZM689.01 47.232C688.714 47.52 688.39 47.74 688.038 47.892C687.694 48.044 687.306 48.12 686.874 48.12C686.25 48.12 685.758 47.96 685.398 47.64C685.046 47.32 684.87 46.9 684.87 46.38C684.87 45.956 684.99 45.592 685.23 45.288C685.47 44.976 685.826 44.732 686.298 44.556C686.77 44.372 687.35 44.26 688.038 44.22L688.974 44.148C689.022 44.14 689.066 44.124 689.106 44.1C689.146 44.076 689.166 44.032 689.166 43.968V43.644C689.166 43.212 689.03 42.872 688.758 42.624C688.494 42.368 688.134 42.24 687.678 42.24C687.326 42.24 687.006 42.32 686.718 42.48C686.438 42.64 686.186 42.88 685.962 43.2C685.93 43.24 685.902 43.268 685.878 43.284C685.862 43.292 685.83 43.288 685.782 43.272L685.134 43.056C685.11 43.04 685.09 43.02 685.074 42.996C685.066 42.972 685.078 42.928 685.11 42.864C685.35 42.448 685.686 42.12 686.118 41.88C686.558 41.64 687.094 41.52 687.726 41.52C688.262 41.52 688.706 41.604 689.058 41.772C689.418 41.932 689.686 42.168 689.862 42.48C690.046 42.784 690.138 43.148 690.138 43.572V47.82C690.138 47.892 690.126 47.94 690.102 47.964C690.078 47.988 690.038 48 689.982 48H689.37C689.314 48 689.274 47.984 689.25 47.952C689.226 47.912 689.21 47.864 689.202 47.808L689.19 47.256C689.166 47.144 689.106 47.136 689.01 47.232ZM689.166 44.952C689.166 44.816 689.11 44.752 688.998 44.76L688.206 44.832C687.838 44.848 687.51 44.896 687.222 44.976C686.934 45.048 686.69 45.144 686.49 45.264C686.29 45.384 686.138 45.528 686.034 45.696C685.93 45.856 685.878 46.044 685.878 46.26C685.878 46.612 685.998 46.888 686.238 47.088C686.486 47.28 686.818 47.376 687.234 47.376C687.49 47.376 687.734 47.332 687.966 47.244C688.206 47.148 688.414 47.028 688.59 46.884C688.774 46.732 688.914 46.576 689.01 46.416C689.114 46.256 689.166 46.1 689.166 45.948V44.952Z" fill="black"/>
<path d="M715.692 39.096C715.788 39.096 715.836 39.148 715.836 39.252V47.796C715.836 47.876 715.82 47.932 715.788 47.964C715.756 47.988 715.7 48 715.62 48H714.864C714.792 48 714.744 47.988 714.72 47.964C714.696 47.94 714.684 47.896 714.684 47.832V39.264C714.684 39.152 714.732 39.096 714.828 39.096H715.692ZM718.092 48C717.98 48 717.924 47.948 717.924 47.844V41.796C717.924 41.692 717.968 41.64 718.056 41.64H718.776C718.856 41.64 718.896 41.684 718.896 41.772V42.468C718.896 42.508 718.904 42.532 718.92 42.54C718.944 42.548 718.976 42.536 719.016 42.504C719.272 42.296 719.508 42.12 719.724 41.976C719.948 41.824 720.172 41.712 720.396 41.64C720.628 41.56 720.876 41.52 721.14 41.52C721.612 41.52 721.988 41.628 722.268 41.844C722.556 42.06 722.748 42.304 722.844 42.576C722.86 42.608 722.884 42.62 722.916 42.612C722.948 42.604 722.98 42.584 723.012 42.552C723.268 42.336 723.508 42.152 723.732 42C723.964 41.848 724.196 41.732 724.428 41.652C724.668 41.564 724.92 41.52 725.184 41.52C725.768 41.52 726.22 41.688 726.54 42.024C726.86 42.352 727.02 42.796 727.02 43.356V47.808C727.02 47.936 726.96 48 726.84 48H726.168C726.112 48 726.072 47.988 726.048 47.964C726.024 47.932 726.012 47.892 726.012 47.844V43.56C726.012 43.168 725.916 42.864 725.724 42.648C725.54 42.424 725.248 42.312 724.848 42.312C724.616 42.312 724.392 42.356 724.176 42.444C723.968 42.532 723.776 42.64 723.6 42.768C723.432 42.896 723.28 43.016 723.144 43.128C723.08 43.184 723.036 43.24 723.012 43.296C722.988 43.344 722.976 43.408 722.976 43.488V47.808C722.976 47.936 722.916 48 722.796 48H722.124C722.076 48 722.036 47.988 722.004 47.964C721.98 47.932 721.968 47.892 721.968 47.844V43.56C721.968 43.168 721.876 42.864 721.692 42.648C721.508 42.424 721.216 42.312 720.816 42.312C720.48 42.312 720.172 42.392 719.892 42.552C719.612 42.712 719.292 42.956 718.932 43.284V47.82C718.932 47.94 718.872 48 718.752 48H718.092ZM732.459 47.232C732.163 47.52 731.839 47.74 731.487 47.892C731.143 48.044 730.755 48.12 730.323 48.12C729.699 48.12 729.207 47.96 728.847 47.64C728.495 47.32 728.319 46.9 728.319 46.38C728.319 45.956 728.439 45.592 728.679 45.288C728.919 44.976 729.275 44.732 729.747 44.556C730.219 44.372 730.799 44.26 731.487 44.22L732.423 44.148C732.471 44.14 732.515 44.124 732.555 44.1C732.595 44.076 732.615 44.032 732.615 43.968V43.644C732.615 43.212 732.479 42.872 732.207 42.624C731.943 42.368 731.583 42.24 731.127 42.24C730.775 42.24 730.455 42.32 730.167 42.48C729.887 42.64 729.635 42.88 729.411 43.2C729.379 43.24 729.351 43.268 729.327 43.284C729.311 43.292 729.279 43.288 729.231 43.272L728.583 43.056C728.559 43.04 728.539 43.02 728.523 42.996C728.515 42.972 728.527 42.928 728.559 42.864C728.799 42.448 729.135 42.12 729.567 41.88C730.007 41.64 730.543 41.52 731.175 41.52C731.711 41.52 732.155 41.604 732.507 41.772C732.867 41.932 733.135 42.168 733.311 42.48C733.495 42.784 733.587 43.148 733.587 43.572V47.82C733.587 47.892 733.575 47.94 733.551 47.964C733.527 47.988 733.487 48 733.431 48H732.819C732.763 48 732.723 47.984 732.699 47.952C732.675 47.912 732.659 47.864 732.651 47.808L732.639 47.256C732.615 47.144 732.555 47.136 732.459 47.232ZM732.615 44.952C732.615 44.816 732.559 44.752 732.447 44.76L731.655 44.832C731.287 44.848 730.959 44.896 730.671 44.976C730.383 45.048 730.139 45.144 729.939 45.264C729.739 45.384 729.587 45.528 729.483 45.696C729.379 45.856 729.327 46.044 729.327 46.26C729.327 46.612 729.447 46.888 729.687 47.088C729.935 47.28 730.267 47.376 730.683 47.376C730.939 47.376 731.183 47.332 731.415 47.244C731.655 47.148 731.863 47.028 732.039 46.884C732.223 46.732 732.363 46.576 732.459 46.416C732.563 46.256 732.615 46.1 732.615 45.948V44.952ZM741.121 41.532C741.201 41.532 741.257 41.548 741.289 41.58C741.329 41.612 741.349 41.66 741.349 41.724V42.144C741.349 42.216 741.329 42.272 741.289 42.312C741.257 42.352 741.197 42.368 741.109 42.36C740.981 42.36 740.869 42.368 740.773 42.384C740.677 42.4 740.581 42.428 740.485 42.468C740.293 42.54 740.213 42.632 740.245 42.744C740.285 42.832 740.329 42.94 740.377 43.068C740.425 43.188 740.449 43.352 740.449 43.56C740.449 43.912 740.357 44.236 740.173 44.532C739.989 44.82 739.701 45.052 739.309 45.228C738.925 45.404 738.437 45.492 737.845 45.492C737.437 45.492 737.117 45.516 736.885 45.564C736.653 45.612 736.489 45.676 736.393 45.756C736.297 45.836 736.249 45.92 736.249 46.008C736.249 46.136 736.333 46.228 736.501 46.284C736.677 46.34 736.957 46.38 737.341 46.404L738.889 46.488C739.593 46.528 740.109 46.696 740.437 46.992C740.765 47.288 740.929 47.676 740.929 48.156C740.929 48.756 740.661 49.228 740.125 49.572C739.597 49.924 738.841 50.1 737.857 50.1C736.841 50.1 736.065 49.952 735.529 49.656C735.001 49.368 734.737 48.952 734.737 48.408C734.737 48.128 734.833 47.876 735.025 47.652C735.225 47.428 735.505 47.228 735.865 47.052C735.953 47.012 735.953 46.968 735.865 46.92C735.689 46.84 735.553 46.744 735.457 46.632C735.361 46.512 735.313 46.372 735.313 46.212C735.313 46.1 735.349 45.988 735.421 45.876C735.493 45.764 735.597 45.66 735.733 45.564C735.877 45.468 736.049 45.384 736.249 45.312C736.297 45.296 736.321 45.276 736.321 45.252C736.321 45.228 736.301 45.2 736.261 45.168C735.909 44.992 735.649 44.772 735.481 44.508C735.313 44.244 735.229 43.928 735.229 43.56C735.229 42.936 735.465 42.444 735.937 42.084C736.409 41.724 737.077 41.544 737.941 41.544C738.357 41.544 738.709 41.592 738.997 41.688C739.293 41.784 739.541 41.916 739.741 42.084C739.789 42.124 739.833 42.144 739.873 42.144C739.913 42.144 739.953 42.124 739.993 42.084C740.089 41.996 740.197 41.912 740.317 41.832C740.437 41.744 740.565 41.672 740.701 41.616C740.845 41.56 740.985 41.532 741.121 41.532ZM737.845 44.856C738.405 44.856 738.821 44.744 739.093 44.52C739.365 44.288 739.501 43.964 739.501 43.548C739.501 43.124 739.365 42.792 739.093 42.552C738.821 42.304 738.405 42.18 737.845 42.18C737.309 42.18 736.893 42.304 736.597 42.552C736.309 42.792 736.165 43.124 736.165 43.548C736.165 43.964 736.309 44.288 736.597 44.52C736.893 44.744 737.309 44.856 737.845 44.856ZM736.789 47.22C736.645 47.212 736.485 47.256 736.309 47.352C736.133 47.44 735.977 47.564 735.841 47.724C735.705 47.884 735.637 48.072 735.637 48.288C735.637 48.536 735.721 48.748 735.889 48.924C736.065 49.108 736.325 49.244 736.669 49.332C737.021 49.428 737.453 49.476 737.965 49.476C738.629 49.476 739.133 49.376 739.477 49.176C739.821 48.984 739.993 48.684 739.993 48.276C739.993 48.012 739.901 47.796 739.717 47.628C739.541 47.46 739.233 47.364 738.793 47.34L736.789 47.22ZM743.053 45.216C743.053 45.608 743.145 45.968 743.329 46.296C743.521 46.616 743.773 46.872 744.085 47.064C744.405 47.256 744.761 47.352 745.153 47.352C745.553 47.352 745.909 47.272 746.221 47.112C746.533 46.944 746.801 46.692 747.025 46.356C747.057 46.324 747.081 46.308 747.097 46.308C747.121 46.3 747.153 46.304 747.193 46.32L747.697 46.572C747.769 46.612 747.777 46.668 747.721 46.74C747.505 47.06 747.265 47.324 747.001 47.532C746.745 47.732 746.457 47.88 746.137 47.976C745.817 48.072 745.457 48.12 745.057 48.12C744.465 48.12 743.941 47.984 743.485 47.712C743.029 47.44 742.669 47.06 742.405 46.572C742.141 46.084 742.009 45.52 742.009 44.88C742.009 44.184 742.141 43.588 742.405 43.092C742.677 42.588 743.041 42.2 743.497 41.928C743.961 41.656 744.477 41.52 745.045 41.52C745.629 41.52 746.137 41.648 746.569 41.904C747.001 42.16 747.337 42.532 747.577 43.02C747.817 43.508 747.937 44.096 747.937 44.784C747.937 44.84 747.929 44.896 747.913 44.952C747.905 45.008 747.853 45.036 747.757 45.036H743.161C743.129 45.036 743.101 45.056 743.077 45.096C743.061 45.128 743.053 45.168 743.053 45.216ZM746.725 44.376C746.813 44.376 746.869 44.368 746.893 44.352C746.917 44.328 746.929 44.28 746.929 44.208C746.929 43.864 746.853 43.544 746.701 43.248C746.557 42.944 746.345 42.7 746.065 42.516C745.793 42.332 745.461 42.24 745.069 42.24C744.637 42.24 744.273 42.344 743.977 42.552C743.681 42.752 743.457 43.016 743.305 43.344C743.153 43.672 743.077 44.016 743.077 44.376H746.725ZM752.16 39.264C752.16 39.152 752.208 39.096 752.304 39.096H753.168C753.264 39.096 753.312 39.148 753.312 39.252V46.992C753.312 47.072 753.352 47.112 753.432 47.112H757.584C757.68 47.112 757.728 47.152 757.728 47.232V47.868C757.728 47.908 757.716 47.94 757.692 47.964C757.668 47.988 757.632 48 757.584 48H752.328C752.264 48 752.22 47.988 752.196 47.964C752.172 47.932 752.16 47.888 752.16 47.832V39.264ZM760.147 47.796C760.147 47.876 760.131 47.932 760.099 47.964C760.075 47.988 760.019 48 759.931 48H759.319C759.247 48 759.199 47.988 759.175 47.964C759.151 47.94 759.139 47.896 759.139 47.832V41.808C759.139 41.696 759.187 41.64 759.283 41.64H760.015C760.103 41.64 760.147 41.692 760.147 41.796V47.796ZM760.195 40.272C760.195 40.424 760.123 40.5 759.979 40.5H759.283C759.211 40.5 759.163 40.484 759.139 40.452C759.115 40.412 759.103 40.36 759.103 40.296V39.288C759.103 39.16 759.159 39.096 759.271 39.096H760.027C760.139 39.096 760.195 39.156 760.195 39.276V40.272ZM764.65 41.52C765.066 41.52 765.43 41.588 765.742 41.724C766.062 41.852 766.334 42.032 766.558 42.264C766.79 42.488 766.982 42.736 767.134 43.008C767.182 43.104 767.162 43.164 767.074 43.188L766.414 43.344C766.358 43.368 766.306 43.344 766.258 43.272C766.098 43.04 765.938 42.852 765.778 42.708C765.626 42.564 765.462 42.456 765.286 42.384C765.11 42.304 764.918 42.264 764.71 42.264C764.302 42.264 763.942 42.368 763.63 42.576C763.326 42.776 763.09 43.068 762.922 43.452C762.754 43.836 762.67 44.292 762.67 44.82C762.67 45.356 762.754 45.816 762.922 46.2C763.098 46.584 763.338 46.876 763.642 47.076C763.954 47.276 764.318 47.376 764.734 47.376C765.118 47.376 765.45 47.28 765.73 47.088C766.01 46.896 766.266 46.616 766.498 46.248C766.522 46.208 766.542 46.188 766.558 46.188C766.582 46.18 766.614 46.184 766.654 46.2L767.17 46.392C767.226 46.416 767.242 46.468 767.218 46.548C767.098 46.756 766.958 46.956 766.798 47.148C766.638 47.34 766.45 47.508 766.234 47.652C766.026 47.796 765.79 47.912 765.526 48C765.262 48.08 764.97 48.12 764.65 48.12C764.058 48.12 763.534 47.984 763.078 47.712C762.63 47.432 762.278 47.048 762.022 46.56C761.766 46.064 761.638 45.492 761.638 44.844C761.638 44.188 761.766 43.612 762.022 43.116C762.286 42.62 762.642 42.232 763.09 41.952C763.546 41.664 764.066 41.52 764.65 41.52ZM769.104 45.216C769.104 45.608 769.196 45.968 769.38 46.296C769.572 46.616 769.824 46.872 770.136 47.064C770.456 47.256 770.812 47.352 771.204 47.352C771.604 47.352 771.96 47.272 772.272 47.112C772.584 46.944 772.852 46.692 773.076 46.356C773.108 46.324 773.132 46.308 773.148 46.308C773.172 46.3 773.204 46.304 773.244 46.32L773.748 46.572C773.82 46.612 773.828 46.668 773.772 46.74C773.556 47.06 773.316 47.324 773.052 47.532C772.796 47.732 772.508 47.88 772.188 47.976C771.868 48.072 771.508 48.12 771.108 48.12C770.516 48.12 769.992 47.984 769.536 47.712C769.08 47.44 768.72 47.06 768.456 46.572C768.192 46.084 768.06 45.52 768.06 44.88C768.06 44.184 768.192 43.588 768.456 43.092C768.728 42.588 769.092 42.2 769.548 41.928C770.012 41.656 770.528 41.52 771.096 41.52C771.68 41.52 772.188 41.648 772.62 41.904C773.052 42.16 773.388 42.532 773.628 43.02C773.868 43.508 773.988 44.096 773.988 44.784C773.988 44.84 773.98 44.896 773.964 44.952C773.956 45.008 773.904 45.036 773.808 45.036H769.212C769.18 45.036 769.152 45.056 769.128 45.096C769.112 45.128 769.104 45.168 769.104 45.216ZM772.776 44.376C772.864 44.376 772.92 44.368 772.944 44.352C772.968 44.328 772.98 44.28 772.98 44.208C772.98 43.864 772.904 43.544 772.752 43.248C772.608 42.944 772.396 42.7 772.116 42.516C771.844 42.332 771.512 42.24 771.12 42.24C770.688 42.24 770.324 42.344 770.028 42.552C769.732 42.752 769.508 43.016 769.356 43.344C769.204 43.672 769.128 44.016 769.128 44.376H772.776ZM775.572 48C775.46 48 775.404 47.948 775.404 47.844V41.796C775.404 41.692 775.448 41.64 775.536 41.64H776.256C776.344 41.64 776.388 41.684 776.388 41.772V42.468C776.388 42.508 776.396 42.532 776.412 42.54C776.428 42.548 776.456 42.536 776.496 42.504C776.76 42.296 777.004 42.12 777.228 41.976C777.46 41.824 777.696 41.712 777.936 41.64C778.176 41.56 778.432 41.52 778.704 41.52C779.328 41.52 779.804 41.688 780.132 42.024C780.468 42.36 780.636 42.796 780.636 43.332V47.808C780.636 47.936 780.576 48 780.456 48H779.784C779.728 48 779.688 47.988 779.664 47.964C779.64 47.932 779.628 47.892 779.628 47.844V43.56C779.628 43.168 779.528 42.864 779.328 42.648C779.128 42.424 778.812 42.312 778.38 42.312C778.148 42.312 777.928 42.352 777.72 42.432C777.52 42.504 777.316 42.612 777.108 42.756C776.9 42.892 776.668 43.068 776.412 43.284V47.82C776.412 47.94 776.352 48 776.232 48H775.572ZM786.228 43.044C786.068 42.804 785.844 42.608 785.556 42.456C785.268 42.304 784.924 42.228 784.524 42.228C784.092 42.228 783.732 42.32 783.444 42.504C783.164 42.688 783.024 42.936 783.024 43.248C783.024 43.416 783.088 43.576 783.216 43.728C783.344 43.872 783.604 44.008 783.996 44.136L785.52 44.592C786.072 44.744 786.468 44.964 786.708 45.252C786.956 45.54 787.08 45.872 787.08 46.248C787.08 46.624 786.968 46.952 786.744 47.232C786.52 47.512 786.212 47.732 785.82 47.892C785.428 48.044 784.984 48.12 784.488 48.12C783.856 48.12 783.304 47.996 782.832 47.748C782.36 47.492 782.024 47.176 781.824 46.8C781.8 46.76 781.788 46.724 781.788 46.692C781.788 46.66 781.808 46.632 781.848 46.608L782.316 46.344C782.356 46.32 782.392 46.312 782.424 46.32C782.456 46.32 782.48 46.332 782.496 46.356C782.632 46.564 782.788 46.744 782.964 46.896C783.148 47.048 783.364 47.168 783.612 47.256C783.868 47.344 784.164 47.388 784.5 47.388C784.804 47.38 785.08 47.336 785.328 47.256C785.576 47.176 785.772 47.06 785.916 46.908C786.06 46.748 786.132 46.564 786.132 46.356C786.132 46.14 786.044 45.956 785.868 45.804C785.692 45.644 785.388 45.504 784.956 45.384L783.72 45.036C783.12 44.876 782.696 44.66 782.448 44.388C782.208 44.116 782.084 43.796 782.076 43.428C782.076 43.044 782.18 42.712 782.388 42.432C782.596 42.144 782.884 41.92 783.252 41.76C783.628 41.6 784.056 41.52 784.536 41.52C785.072 41.52 785.548 41.624 785.964 41.832C786.388 42.032 786.708 42.3 786.924 42.636C786.948 42.668 786.96 42.7 786.96 42.732C786.96 42.756 786.944 42.78 786.912 42.804L786.408 43.08C786.376 43.096 786.344 43.104 786.312 43.104C786.288 43.096 786.26 43.076 786.228 43.044ZM789.225 45.216C789.225 45.608 789.317 45.968 789.501 46.296C789.693 46.616 789.945 46.872 790.257 47.064C790.577 47.256 790.933 47.352 791.325 47.352C791.725 47.352 792.081 47.272 792.393 47.112C792.705 46.944 792.973 46.692 793.197 46.356C793.229 46.324 793.253 46.308 793.269 46.308C793.293 46.3 793.325 46.304 793.365 46.32L793.869 46.572C793.941 46.612 793.949 46.668 793.893 46.74C793.677 47.06 793.437 47.324 793.173 47.532C792.917 47.732 792.629 47.88 792.309 47.976C791.989 48.072 791.629 48.12 791.229 48.12C790.637 48.12 790.113 47.984 789.657 47.712C789.201 47.44 788.841 47.06 788.577 46.572C788.313 46.084 788.181 45.52 788.181 44.88C788.181 44.184 788.313 43.588 788.577 43.092C788.849 42.588 789.213 42.2 789.669 41.928C790.133 41.656 790.649 41.52 791.217 41.52C791.801 41.52 792.309 41.648 792.741 41.904C793.173 42.16 793.509 42.532 793.749 43.02C793.989 43.508 794.109 44.096 794.109 44.784C794.109 44.84 794.101 44.896 794.085 44.952C794.077 45.008 794.025 45.036 793.929 45.036H789.333C789.301 45.036 789.273 45.056 789.249 45.096C789.233 45.128 789.225 45.168 789.225 45.216ZM792.897 44.376C792.985 44.376 793.041 44.368 793.065 44.352C793.089 44.328 793.101 44.28 793.101 44.208C793.101 43.864 793.025 43.544 792.873 43.248C792.729 42.944 792.517 42.7 792.237 42.516C791.965 42.332 791.633 42.24 791.241 42.24C790.809 42.24 790.445 42.344 790.149 42.552C789.853 42.752 789.629 43.016 789.477 43.344C789.325 43.672 789.249 44.016 789.249 44.376H792.897ZM799.34 39.096C799.436 39.096 799.484 39.148 799.484 39.252V47.796C799.484 47.876 799.468 47.932 799.436 47.964C799.404 47.988 799.348 48 799.268 48H798.512C798.44 48 798.392 47.988 798.368 47.964C798.344 47.94 798.332 47.896 798.332 47.832V39.264C798.332 39.152 798.38 39.096 798.476 39.096H799.34ZM801.74 48C801.628 48 801.572 47.948 801.572 47.844V41.796C801.572 41.692 801.616 41.64 801.704 41.64H802.424C802.512 41.64 802.556 41.684 802.556 41.772V42.468C802.556 42.508 802.564 42.532 802.58 42.54C802.596 42.548 802.624 42.536 802.664 42.504C802.928 42.296 803.172 42.12 803.396 41.976C803.628 41.824 803.864 41.712 804.104 41.64C804.344 41.56 804.6 41.52 804.872 41.52C805.496 41.52 805.972 41.688 806.3 42.024C806.636 42.36 806.804 42.796 806.804 43.332V47.808C806.804 47.936 806.744 48 806.624 48H805.952C805.896 48 805.856 47.988 805.832 47.964C805.808 47.932 805.796 47.892 805.796 47.844V43.56C805.796 43.168 805.696 42.864 805.496 42.648C805.296 42.424 804.98 42.312 804.548 42.312C804.316 42.312 804.096 42.352 803.888 42.432C803.688 42.504 803.484 42.612 803.276 42.756C803.068 42.892 802.836 43.068 802.58 43.284V47.82C802.58 47.94 802.52 48 802.4 48H801.74ZM811.644 41.64C811.684 41.64 811.712 41.652 811.728 41.676C811.752 41.7 811.764 41.728 811.764 41.76V42.276C811.764 42.356 811.724 42.396 811.644 42.396H810.276C810.212 42.396 810.18 42.428 810.18 42.492V47.832C810.18 47.944 810.132 48 810.036 48H809.304C809.216 48 809.172 47.948 809.172 47.844V42.48C809.172 42.424 809.144 42.396 809.088 42.396H807.912C807.832 42.396 807.792 42.356 807.792 42.276V41.76C807.792 41.728 807.8 41.7 807.816 41.676C807.84 41.652 807.876 41.64 807.924 41.64H809.064C809.136 41.64 809.172 41.6 809.172 41.52V40.644C809.172 40.14 809.296 39.756 809.544 39.492C809.792 39.228 810.168 39.096 810.672 39.096H811.668C811.772 39.096 811.824 39.144 811.824 39.24V39.708C811.824 39.748 811.812 39.78 811.788 39.804C811.772 39.82 811.74 39.828 811.692 39.828H810.852C810.604 39.828 810.424 39.908 810.312 40.068C810.208 40.22 810.156 40.428 810.156 40.692V41.532C810.156 41.604 810.192 41.64 810.264 41.64H811.644ZM815.404 48.12C814.804 48.12 814.272 47.984 813.808 47.712C813.352 47.432 812.996 47.048 812.74 46.56C812.492 46.064 812.368 45.496 812.368 44.856C812.368 44.192 812.496 43.612 812.752 43.116C813.016 42.612 813.376 42.22 813.832 41.94C814.288 41.66 814.816 41.52 815.416 41.52C816.024 41.52 816.552 41.664 817 41.952C817.456 42.232 817.808 42.624 818.056 43.128C818.312 43.624 818.44 44.196 818.44 44.844C818.44 45.484 818.312 46.052 818.056 46.548C817.8 47.036 817.444 47.42 816.988 47.7C816.54 47.98 816.012 48.12 815.404 48.12ZM815.428 47.364C815.844 47.364 816.2 47.264 816.496 47.064C816.792 46.856 817.016 46.564 817.168 46.188C817.328 45.804 817.408 45.348 817.408 44.82C817.408 44.292 817.328 43.84 817.168 43.464C817.008 43.08 816.78 42.784 816.484 42.576C816.188 42.368 815.832 42.264 815.416 42.264C815.008 42.264 814.652 42.368 814.348 42.576C814.044 42.784 813.808 43.08 813.64 43.464C813.48 43.84 813.4 44.292 813.4 44.82C813.4 45.34 813.48 45.792 813.64 46.176C813.808 46.56 814.044 46.856 814.348 47.064C814.652 47.264 815.012 47.364 815.428 47.364Z" fill="black"/>
<path d="M502.469 39.228C502.469 39.188 502.477 39.156 502.493 39.132C502.517 39.108 502.557 39.096 502.613 39.096H509.069C509.117 39.096 509.153 39.108 509.177 39.132C509.201 39.156 509.213 39.188 509.213 39.228V39.852C509.213 39.932 509.165 39.972 509.069 39.972H506.633C506.545 39.972 506.501 40.012 506.501 40.092V47.844C506.501 47.948 506.453 48 506.357 48H505.493C505.397 48 505.349 47.948 505.349 47.844V40.104C505.349 40.016 505.309 39.972 505.229 39.972H502.613C502.517 39.972 502.469 39.932 502.469 39.852V39.228ZM510.03 45.216C510.03 45.608 510.122 45.968 510.306 46.296C510.498 46.616 510.75 46.872 511.062 47.064C511.382 47.256 511.738 47.352 512.13 47.352C512.53 47.352 512.886 47.272 513.198 47.112C513.51 46.944 513.778 46.692 514.002 46.356C514.034 46.324 514.058 46.308 514.074 46.308C514.098 46.3 514.13 46.304 514.17 46.32L514.674 46.572C514.746 46.612 514.754 46.668 514.698 46.74C514.482 47.06 514.242 47.324 513.978 47.532C513.722 47.732 513.434 47.88 513.114 47.976C512.794 48.072 512.434 48.12 512.034 48.12C511.442 48.12 510.918 47.984 510.462 47.712C510.006 47.44 509.646 47.06 509.382 46.572C509.118 46.084 508.986 45.52 508.986 44.88C508.986 44.184 509.118 43.588 509.382 43.092C509.654 42.588 510.018 42.2 510.474 41.928C510.938 41.656 511.454 41.52 512.022 41.52C512.606 41.52 513.114 41.648 513.546 41.904C513.978 42.16 514.314 42.532 514.554 43.02C514.794 43.508 514.914 44.096 514.914 44.784C514.914 44.84 514.906 44.896 514.89 44.952C514.882 45.008 514.83 45.036 514.734 45.036H510.138C510.106 45.036 510.078 45.056 510.054 45.096C510.038 45.128 510.03 45.168 510.03 45.216ZM513.702 44.376C513.79 44.376 513.846 44.368 513.87 44.352C513.894 44.328 513.906 44.28 513.906 44.208C513.906 43.864 513.83 43.544 513.678 43.248C513.534 42.944 513.322 42.7 513.042 42.516C512.77 42.332 512.438 42.24 512.046 42.24C511.614 42.24 511.25 42.344 510.954 42.552C510.658 42.752 510.434 43.016 510.282 43.344C510.13 43.672 510.054 44.016 510.054 44.376H513.702ZM516.498 48C516.386 48 516.33 47.948 516.33 47.844V41.796C516.33 41.692 516.374 41.64 516.462 41.64H517.182C517.262 41.64 517.302 41.684 517.302 41.772V42.468C517.302 42.508 517.31 42.532 517.326 42.54C517.35 42.548 517.382 42.536 517.422 42.504C517.678 42.296 517.914 42.12 518.13 41.976C518.354 41.824 518.578 41.712 518.802 41.64C519.034 41.56 519.282 41.52 519.546 41.52C520.018 41.52 520.394 41.628 520.674 41.844C520.962 42.06 521.154 42.304 521.25 42.576C521.266 42.608 521.29 42.62 521.322 42.612C521.354 42.604 521.386 42.584 521.418 42.552C521.674 42.336 521.914 42.152 522.138 42C522.37 41.848 522.602 41.732 522.834 41.652C523.074 41.564 523.326 41.52 523.59 41.52C524.174 41.52 524.626 41.688 524.946 42.024C525.266 42.352 525.426 42.796 525.426 43.356V47.808C525.426 47.936 525.366 48 525.246 48H524.574C524.518 48 524.478 47.988 524.454 47.964C524.43 47.932 524.418 47.892 524.418 47.844V43.56C524.418 43.168 524.322 42.864 524.13 42.648C523.946 42.424 523.654 42.312 523.254 42.312C523.022 42.312 522.798 42.356 522.582 42.444C522.374 42.532 522.182 42.64 522.006 42.768C521.838 42.896 521.686 43.016 521.55 43.128C521.486 43.184 521.442 43.24 521.418 43.296C521.394 43.344 521.382 43.408 521.382 43.488V47.808C521.382 47.936 521.322 48 521.202 48H520.53C520.482 48 520.442 47.988 520.41 47.964C520.386 47.932 520.374 47.892 520.374 47.844V43.56C520.374 43.168 520.282 42.864 520.098 42.648C519.914 42.424 519.622 42.312 519.222 42.312C518.886 42.312 518.578 42.392 518.298 42.552C518.018 42.712 517.698 42.956 517.338 43.284V47.82C517.338 47.94 517.278 48 517.158 48H516.498ZM528.033 41.64C528.145 41.64 528.201 41.7 528.201 41.82V42.324C528.201 42.388 528.213 42.424 528.237 42.432C528.269 42.432 528.309 42.412 528.357 42.372C528.445 42.276 528.565 42.164 528.717 42.036C528.869 41.9 529.065 41.78 529.305 41.676C529.553 41.572 529.865 41.52 530.241 41.52C530.729 41.52 531.169 41.64 531.561 41.88C531.961 42.112 532.277 42.464 532.509 42.936C532.749 43.408 532.869 44.004 532.869 44.724C532.869 45.444 532.753 46.056 532.521 46.56C532.289 47.064 531.965 47.452 531.549 47.724C531.141 47.988 530.661 48.12 530.109 48.12C529.741 48.12 529.413 48.064 529.125 47.952C528.845 47.832 528.605 47.688 528.405 47.52C528.333 47.456 528.281 47.432 528.249 47.448C528.225 47.456 528.213 47.504 528.213 47.592V49.824C528.213 49.928 528.169 49.98 528.081 49.98H527.337C527.249 49.98 527.205 49.928 527.205 49.824V41.832C527.205 41.76 527.217 41.712 527.241 41.688C527.273 41.656 527.325 41.64 527.397 41.64H528.033ZM528.213 46.596C528.461 46.836 528.713 47.028 528.969 47.172C529.233 47.316 529.525 47.388 529.845 47.388C530.229 47.388 530.569 47.288 530.865 47.088C531.169 46.888 531.405 46.592 531.573 46.2C531.749 45.808 531.837 45.32 531.837 44.736C531.837 44.152 531.749 43.676 531.573 43.308C531.397 42.94 531.161 42.672 530.865 42.504C530.577 42.336 530.257 42.252 529.905 42.252C529.577 42.252 529.285 42.324 529.029 42.468C528.773 42.612 528.573 42.792 528.429 43.008C528.285 43.216 528.213 43.424 528.213 43.632V46.596ZM535.385 47.796C535.385 47.876 535.369 47.932 535.337 47.964C535.305 47.988 535.249 48 535.169 48H534.545C534.425 48 534.365 47.944 534.365 47.832L534.377 39.264C534.377 39.152 534.425 39.096 534.521 39.096H535.241C535.337 39.096 535.385 39.148 535.385 39.252V47.796ZM540.897 47.232C540.601 47.52 540.277 47.74 539.925 47.892C539.581 48.044 539.193 48.12 538.761 48.12C538.137 48.12 537.645 47.96 537.285 47.64C536.933 47.32 536.757 46.9 536.757 46.38C536.757 45.956 536.877 45.592 537.117 45.288C537.357 44.976 537.713 44.732 538.185 44.556C538.657 44.372 539.237 44.26 539.925 44.22L540.861 44.148C540.909 44.14 540.953 44.124 540.993 44.1C541.033 44.076 541.053 44.032 541.053 43.968V43.644C541.053 43.212 540.917 42.872 540.645 42.624C540.381 42.368 540.021 42.24 539.565 42.24C539.213 42.24 538.893 42.32 538.605 42.48C538.325 42.64 538.073 42.88 537.849 43.2C537.817 43.24 537.789 43.268 537.765 43.284C537.749 43.292 537.717 43.288 537.669 43.272L537.021 43.056C536.997 43.04 536.977 43.02 536.961 42.996C536.953 42.972 536.965 42.928 536.997 42.864C537.237 42.448 537.573 42.12 538.005 41.88C538.445 41.64 538.981 41.52 539.613 41.52C540.149 41.52 540.593 41.604 540.945 41.772C541.305 41.932 541.573 42.168 541.749 42.48C541.933 42.784 542.025 43.148 542.025 43.572V47.82C542.025 47.892 542.013 47.94 541.989 47.964C541.965 47.988 541.925 48 541.869 48H541.257C541.201 48 541.161 47.984 541.137 47.952C541.113 47.912 541.097 47.864 541.089 47.808L541.077 47.256C541.053 47.144 540.993 47.136 540.897 47.232ZM541.053 44.952C541.053 44.816 540.997 44.752 540.885 44.76L540.093 44.832C539.725 44.848 539.397 44.896 539.109 44.976C538.821 45.048 538.577 45.144 538.377 45.264C538.177 45.384 538.025 45.528 537.921 45.696C537.817 45.856 537.765 46.044 537.765 46.26C537.765 46.612 537.885 46.888 538.125 47.088C538.373 47.28 538.705 47.376 539.121 47.376C539.377 47.376 539.621 47.332 539.853 47.244C540.093 47.148 540.301 47.028 540.477 46.884C540.661 46.732 540.801 46.576 540.897 46.416C541.001 46.256 541.053 46.1 541.053 45.948V44.952ZM545.338 42.396C545.274 42.396 545.242 42.428 545.242 42.492V46.296C545.242 46.672 545.306 46.924 545.434 47.052C545.562 47.18 545.754 47.244 546.01 47.244H546.838C546.878 47.244 546.91 47.256 546.934 47.28C546.958 47.296 546.97 47.328 546.97 47.376L546.958 47.784C546.958 47.864 546.91 47.916 546.814 47.94C546.734 47.956 546.618 47.968 546.466 47.976C546.322 47.984 546.178 47.992 546.034 48C545.898 48 545.782 48 545.686 48C545.182 48 544.814 47.884 544.582 47.652C544.35 47.412 544.234 47.036 544.234 46.524V42.516C544.234 42.436 544.194 42.396 544.114 42.396H543.154C543.066 42.396 543.022 42.352 543.022 42.264V41.76C543.022 41.68 543.062 41.64 543.142 41.64H544.162C544.218 41.64 544.246 41.608 544.246 41.544L544.378 39.636C544.386 39.532 544.43 39.48 544.51 39.48H545.11C545.206 39.48 545.254 39.536 545.254 39.648V41.544C545.254 41.608 545.286 41.64 545.35 41.64H546.862C546.95 41.64 546.994 41.676 546.994 41.748V42.264C546.994 42.352 546.95 42.396 546.862 42.396H545.338ZM548.819 45.216C548.819 45.608 548.911 45.968 549.095 46.296C549.287 46.616 549.539 46.872 549.851 47.064C550.171 47.256 550.527 47.352 550.919 47.352C551.319 47.352 551.675 47.272 551.987 47.112C552.299 46.944 552.567 46.692 552.791 46.356C552.823 46.324 552.847 46.308 552.863 46.308C552.887 46.3 552.919 46.304 552.959 46.32L553.463 46.572C553.535 46.612 553.543 46.668 553.487 46.74C553.271 47.06 553.031 47.324 552.767 47.532C552.511 47.732 552.223 47.88 551.903 47.976C551.583 48.072 551.223 48.12 550.823 48.12C550.231 48.12 549.707 47.984 549.251 47.712C548.795 47.44 548.435 47.06 548.171 46.572C547.907 46.084 547.775 45.52 547.775 44.88C547.775 44.184 547.907 43.588 548.171 43.092C548.443 42.588 548.807 42.2 549.263 41.928C549.727 41.656 550.243 41.52 550.811 41.52C551.395 41.52 551.903 41.648 552.335 41.904C552.767 42.16 553.103 42.532 553.343 43.02C553.583 43.508 553.703 44.096 553.703 44.784C553.703 44.84 553.695 44.896 553.679 44.952C553.671 45.008 553.619 45.036 553.523 45.036H548.927C548.895 45.036 548.867 45.056 548.843 45.096C548.827 45.128 548.819 45.168 548.819 45.216ZM552.491 44.376C552.579 44.376 552.635 44.368 552.659 44.352C552.683 44.328 552.695 44.28 552.695 44.208C552.695 43.864 552.619 43.544 552.467 43.248C552.323 42.944 552.111 42.7 551.831 42.516C551.559 42.332 551.227 42.24 550.835 42.24C550.403 42.24 550.039 42.344 549.743 42.552C549.447 42.752 549.223 43.016 549.071 43.344C548.919 43.672 548.843 44.016 548.843 44.376H552.491ZM562.21 48C562.154 48 562.11 47.988 562.078 47.964C562.054 47.932 562.042 47.888 562.042 47.832V47.328C562.042 47.264 562.026 47.228 561.994 47.22C561.97 47.212 561.934 47.232 561.886 47.28C561.798 47.36 561.67 47.468 561.502 47.604C561.342 47.74 561.138 47.86 560.89 47.964C560.642 48.068 560.346 48.12 560.002 48.12C559.498 48.12 559.046 48 558.646 47.76C558.246 47.52 557.926 47.164 557.686 46.692C557.454 46.212 557.338 45.62 557.338 44.916C557.338 44.236 557.454 43.644 557.686 43.14C557.926 42.628 558.258 42.232 558.682 41.952C559.114 41.664 559.602 41.52 560.146 41.52C560.538 41.52 560.866 41.584 561.13 41.712C561.394 41.84 561.626 41.988 561.826 42.156C561.898 42.212 561.946 42.236 561.97 42.228C562.002 42.212 562.018 42.16 562.018 42.072V39.252C562.018 39.148 562.062 39.096 562.15 39.096H562.882C562.97 39.096 563.014 39.148 563.014 39.252V47.808C563.014 47.88 563.002 47.932 562.978 47.964C562.954 47.988 562.902 48 562.822 48H562.21ZM562.006 43.044C561.758 42.796 561.506 42.604 561.25 42.468C560.994 42.332 560.706 42.264 560.386 42.264C560.002 42.264 559.654 42.364 559.342 42.564C559.038 42.756 558.798 43.048 558.622 43.44C558.454 43.832 558.37 44.312 558.37 44.88C558.37 45.464 558.458 45.944 558.634 46.32C558.81 46.688 559.046 46.96 559.342 47.136C559.638 47.304 559.962 47.388 560.314 47.388C560.642 47.388 560.93 47.312 561.178 47.16C561.434 47.008 561.634 46.82 561.778 46.596C561.93 46.372 562.006 46.152 562.006 45.936V43.044ZM565.541 45.216C565.541 45.608 565.633 45.968 565.817 46.296C566.009 46.616 566.261 46.872 566.573 47.064C566.893 47.256 567.249 47.352 567.641 47.352C568.041 47.352 568.397 47.272 568.709 47.112C569.021 46.944 569.289 46.692 569.513 46.356C569.545 46.324 569.569 46.308 569.585 46.308C569.609 46.3 569.641 46.304 569.681 46.32L570.185 46.572C570.257 46.612 570.265 46.668 570.209 46.74C569.993 47.06 569.753 47.324 569.489 47.532C569.233 47.732 568.945 47.88 568.625 47.976C568.305 48.072 567.945 48.12 567.545 48.12C566.953 48.12 566.429 47.984 565.973 47.712C565.517 47.44 565.157 47.06 564.893 46.572C564.629 46.084 564.497 45.52 564.497 44.88C564.497 44.184 564.629 43.588 564.893 43.092C565.165 42.588 565.529 42.2 565.985 41.928C566.449 41.656 566.965 41.52 567.533 41.52C568.117 41.52 568.625 41.648 569.057 41.904C569.489 42.16 569.825 42.532 570.065 43.02C570.305 43.508 570.425 44.096 570.425 44.784C570.425 44.84 570.417 44.896 570.401 44.952C570.393 45.008 570.341 45.036 570.245 45.036H565.649C565.617 45.036 565.589 45.056 565.565 45.096C565.549 45.128 565.541 45.168 565.541 45.216ZM569.213 44.376C569.301 44.376 569.357 44.368 569.381 44.352C569.405 44.328 569.417 44.28 569.417 44.208C569.417 43.864 569.341 43.544 569.189 43.248C569.045 42.944 568.833 42.7 568.553 42.516C568.281 42.332 567.949 42.24 567.557 42.24C567.125 42.24 566.761 42.344 566.465 42.552C566.169 42.752 565.945 43.016 565.793 43.344C565.641 43.672 565.565 44.016 565.565 44.376H569.213ZM575.658 43.044C575.498 42.804 575.274 42.608 574.986 42.456C574.698 42.304 574.354 42.228 573.954 42.228C573.522 42.228 573.162 42.32 572.874 42.504C572.594 42.688 572.454 42.936 572.454 43.248C572.454 43.416 572.518 43.576 572.646 43.728C572.774 43.872 573.034 44.008 573.426 44.136L574.95 44.592C575.502 44.744 575.898 44.964 576.138 45.252C576.386 45.54 576.51 45.872 576.51 46.248C576.51 46.624 576.398 46.952 576.174 47.232C575.95 47.512 575.642 47.732 575.25 47.892C574.858 48.044 574.414 48.12 573.918 48.12C573.286 48.12 572.734 47.996 572.262 47.748C571.79 47.492 571.454 47.176 571.254 46.8C571.23 46.76 571.218 46.724 571.218 46.692C571.218 46.66 571.238 46.632 571.278 46.608L571.746 46.344C571.786 46.32 571.822 46.312 571.854 46.32C571.886 46.32 571.91 46.332 571.926 46.356C572.062 46.564 572.218 46.744 572.394 46.896C572.578 47.048 572.794 47.168 573.042 47.256C573.298 47.344 573.594 47.388 573.93 47.388C574.234 47.38 574.51 47.336 574.758 47.256C575.006 47.176 575.202 47.06 575.346 46.908C575.49 46.748 575.562 46.564 575.562 46.356C575.562 46.14 575.474 45.956 575.298 45.804C575.122 45.644 574.818 45.504 574.386 45.384L573.15 45.036C572.55 44.876 572.126 44.66 571.878 44.388C571.638 44.116 571.514 43.796 571.506 43.428C571.506 43.044 571.61 42.712 571.818 42.432C572.026 42.144 572.314 41.92 572.682 41.76C573.058 41.6 573.486 41.52 573.966 41.52C574.502 41.52 574.978 41.624 575.394 41.832C575.818 42.032 576.138 42.3 576.354 42.636C576.378 42.668 576.39 42.7 576.39 42.732C576.39 42.756 576.374 42.78 576.342 42.804L575.838 43.08C575.806 43.096 575.774 43.104 575.742 43.104C575.718 43.096 575.69 43.076 575.658 43.044ZM578.991 47.796C578.991 47.876 578.975 47.932 578.943 47.964C578.919 47.988 578.863 48 578.775 48H578.163C578.091 48 578.043 47.988 578.019 47.964C577.995 47.94 577.983 47.896 577.983 47.832V41.808C577.983 41.696 578.031 41.64 578.127 41.64H578.859C578.947 41.64 578.991 41.692 578.991 41.796V47.796ZM579.039 40.272C579.039 40.424 578.967 40.5 578.823 40.5H578.127C578.055 40.5 578.007 40.484 577.983 40.452C577.959 40.412 577.947 40.36 577.947 40.296V39.288C577.947 39.16 578.003 39.096 578.115 39.096H578.871C578.983 39.096 579.039 39.156 579.039 39.276V40.272ZM586.602 41.532C586.682 41.532 586.738 41.548 586.77 41.58C586.81 41.612 586.83 41.66 586.83 41.724V42.144C586.83 42.216 586.81 42.272 586.77 42.312C586.738 42.352 586.678 42.368 586.59 42.36C586.462 42.36 586.35 42.368 586.254 42.384C586.158 42.4 586.062 42.428 585.966 42.468C585.774 42.54 585.694 42.632 585.726 42.744C585.766 42.832 585.81 42.94 585.858 43.068C585.906 43.188 585.93 43.352 585.93 43.56C585.93 43.912 585.838 44.236 585.654 44.532C585.47 44.82 585.182 45.052 584.79 45.228C584.406 45.404 583.918 45.492 583.326 45.492C582.918 45.492 582.598 45.516 582.366 45.564C582.134 45.612 581.97 45.676 581.874 45.756C581.778 45.836 581.73 45.92 581.73 46.008C581.73 46.136 581.814 46.228 581.982 46.284C582.158 46.34 582.438 46.38 582.822 46.404L584.37 46.488C585.074 46.528 585.59 46.696 585.918 46.992C586.246 47.288 586.41 47.676 586.41 48.156C586.41 48.756 586.142 49.228 585.606 49.572C585.078 49.924 584.322 50.1 583.338 50.1C582.322 50.1 581.546 49.952 581.01 49.656C580.482 49.368 580.218 48.952 580.218 48.408C580.218 48.128 580.314 47.876 580.506 47.652C580.706 47.428 580.986 47.228 581.346 47.052C581.434 47.012 581.434 46.968 581.346 46.92C581.17 46.84 581.034 46.744 580.938 46.632C580.842 46.512 580.794 46.372 580.794 46.212C580.794 46.1 580.83 45.988 580.902 45.876C580.974 45.764 581.078 45.66 581.214 45.564C581.358 45.468 581.53 45.384 581.73 45.312C581.778 45.296 581.802 45.276 581.802 45.252C581.802 45.228 581.782 45.2 581.742 45.168C581.39 44.992 581.13 44.772 580.962 44.508C580.794 44.244 580.71 43.928 580.71 43.56C580.71 42.936 580.946 42.444 581.418 42.084C581.89 41.724 582.558 41.544 583.422 41.544C583.838 41.544 584.19 41.592 584.478 41.688C584.774 41.784 585.022 41.916 585.222 42.084C585.27 42.124 585.314 42.144 585.354 42.144C585.394 42.144 585.434 42.124 585.474 42.084C585.57 41.996 585.678 41.912 585.798 41.832C585.918 41.744 586.046 41.672 586.182 41.616C586.326 41.56 586.466 41.532 586.602 41.532ZM583.326 44.856C583.886 44.856 584.302 44.744 584.574 44.52C584.846 44.288 584.982 43.964 584.982 43.548C584.982 43.124 584.846 42.792 584.574 42.552C584.302 42.304 583.886 42.18 583.326 42.18C582.79 42.18 582.374 42.304 582.078 42.552C581.79 42.792 581.646 43.124 581.646 43.548C581.646 43.964 581.79 44.288 582.078 44.52C582.374 44.744 582.79 44.856 583.326 44.856ZM582.27 47.22C582.126 47.212 581.966 47.256 581.79 47.352C581.614 47.44 581.458 47.564 581.322 47.724C581.186 47.884 581.118 48.072 581.118 48.288C581.118 48.536 581.202 48.748 581.37 48.924C581.546 49.108 581.806 49.244 582.15 49.332C582.502 49.428 582.934 49.476 583.446 49.476C584.11 49.476 584.614 49.376 584.958 49.176C585.302 48.984 585.474 48.684 585.474 48.276C585.474 48.012 585.382 47.796 585.198 47.628C585.022 47.46 584.714 47.364 584.274 47.34L582.27 47.22ZM588.24 48C588.128 48 588.072 47.948 588.072 47.844V41.796C588.072 41.692 588.116 41.64 588.204 41.64H588.924C589.012 41.64 589.056 41.684 589.056 41.772V42.468C589.056 42.508 589.064 42.532 589.08 42.54C589.096 42.548 589.124 42.536 589.164 42.504C589.428 42.296 589.672 42.12 589.896 41.976C590.128 41.824 590.364 41.712 590.604 41.64C590.844 41.56 591.1 41.52 591.372 41.52C591.996 41.52 592.472 41.688 592.8 42.024C593.136 42.36 593.304 42.796 593.304 43.332V47.808C593.304 47.936 593.244 48 593.124 48H592.452C592.396 48 592.356 47.988 592.332 47.964C592.308 47.932 592.296 47.892 592.296 47.844V43.56C592.296 43.168 592.196 42.864 591.996 42.648C591.796 42.424 591.48 42.312 591.048 42.312C590.816 42.312 590.596 42.352 590.388 42.432C590.188 42.504 589.984 42.612 589.776 42.756C589.568 42.892 589.336 43.068 589.08 43.284V47.82C589.08 47.94 589.02 48 588.9 48H588.24ZM597.839 48C597.767 48 597.715 47.984 597.683 47.952C597.659 47.92 597.647 47.872 597.647 47.808V39.264C597.647 39.152 597.695 39.096 597.791 39.096H598.535C598.615 39.096 598.655 39.152 598.655 39.264V42.204C598.655 42.292 598.671 42.34 598.703 42.348C598.735 42.348 598.779 42.324 598.835 42.276C598.907 42.204 599.023 42.108 599.183 41.988C599.351 41.868 599.563 41.76 599.819 41.664C600.083 41.568 600.395 41.52 600.755 41.52C601.339 41.52 601.819 41.664 602.195 41.952C602.571 42.24 602.851 42.632 603.035 43.128C603.227 43.616 603.323 44.168 603.323 44.784C603.323 45.808 603.083 46.62 602.603 47.22C602.123 47.82 601.451 48.12 600.587 48.12C600.219 48.12 599.903 48.064 599.639 47.952C599.383 47.84 599.171 47.708 599.003 47.556C598.835 47.404 598.711 47.276 598.631 47.172C598.599 47.132 598.571 47.116 598.547 47.124C598.523 47.132 598.507 47.16 598.499 47.208L598.439 47.808C598.423 47.936 598.351 48 598.223 48H597.839ZM598.655 45.852C598.655 46.14 598.735 46.404 598.895 46.644C599.063 46.876 599.279 47.06 599.543 47.196C599.807 47.332 600.083 47.4 600.371 47.4C600.731 47.4 601.055 47.312 601.343 47.136C601.631 46.952 601.859 46.668 602.027 46.284C602.195 45.9 602.279 45.408 602.279 44.808C602.279 43.992 602.123 43.364 601.811 42.924C601.499 42.476 601.047 42.252 600.455 42.252C600.079 42.252 599.735 42.34 599.423 42.516C599.119 42.684 598.863 42.892 598.655 43.14V45.852ZM604.909 49.98C604.677 49.98 604.497 49.972 604.369 49.956C604.241 49.94 604.177 49.896 604.177 49.824V49.356C604.177 49.3 604.197 49.26 604.237 49.236C604.285 49.212 604.377 49.2 604.513 49.2H605.269C605.445 49.2 605.605 49.14 605.749 49.02C605.893 48.908 606.013 48.764 606.109 48.588C606.205 48.412 606.269 48.232 606.301 48.048C606.333 47.872 606.321 47.716 606.265 47.58L603.973 41.844C603.957 41.788 603.957 41.74 603.973 41.7C603.997 41.66 604.041 41.64 604.105 41.64H604.849C604.897 41.64 604.937 41.652 604.969 41.676C605.001 41.692 605.025 41.724 605.041 41.772L606.829 46.428C606.861 46.5 606.897 46.536 606.937 46.536C606.977 46.536 607.013 46.488 607.045 46.392L608.809 41.772C608.833 41.724 608.857 41.692 608.881 41.676C608.905 41.652 608.937 41.64 608.977 41.64H609.541C609.597 41.64 609.637 41.66 609.661 41.7C609.685 41.732 609.685 41.772 609.661 41.82L607.021 48.564C606.909 48.852 606.785 49.088 606.649 49.272C606.513 49.456 606.357 49.596 606.181 49.692C606.013 49.796 605.825 49.868 605.617 49.908C605.409 49.956 605.173 49.98 604.909 49.98Z" fill="#6C6C6C"/>
<path d="M703.258 45.06C703.258 45.172 703.19 45.228 703.054 45.228H700.33C700.274 45.228 700.234 45.22 700.21 45.204C700.186 45.18 700.174 45.14 700.174 45.084V44.556C700.174 44.468 700.21 44.424 700.282 44.424L703.138 44.412C703.218 44.412 703.258 44.452 703.258 44.532V45.06Z" fill="#6C6C6C"/>
<path d="M911.97 39.096C912.042 39.096 912.09 39.116 912.114 39.156C912.146 39.196 912.154 39.248 912.138 39.312L909.666 47.82C909.626 47.94 909.538 48 909.402 48H908.67C908.518 48 908.426 47.944 908.394 47.832L906.474 41.028C906.466 40.988 906.454 40.968 906.438 40.968C906.422 40.968 906.406 40.992 906.39 41.04L904.446 47.82C904.406 47.94 904.318 48 904.182 48H903.438C903.286 48 903.194 47.944 903.162 47.832L900.726 39.312C900.71 39.248 900.714 39.196 900.738 39.156C900.77 39.116 900.822 39.096 900.894 39.096H901.662C901.726 39.096 901.774 39.108 901.806 39.132C901.838 39.148 901.858 39.184 901.866 39.24L903.822 46.224C903.846 46.312 903.87 46.356 903.894 46.356C903.926 46.348 903.95 46.308 903.966 46.236L905.958 39.228C905.974 39.196 905.994 39.168 906.018 39.144C906.05 39.112 906.102 39.096 906.174 39.096H906.858C906.93 39.096 906.978 39.108 907.002 39.132C907.034 39.148 907.058 39.184 907.074 39.24L909.042 46.26C909.066 46.332 909.09 46.368 909.114 46.368C909.138 46.36 909.162 46.324 909.186 46.26L911.166 39.228C911.174 39.18 911.194 39.148 911.226 39.132C911.266 39.108 911.314 39.096 911.37 39.096H911.97ZM913.5 45.216C913.5 45.608 913.592 45.968 913.776 46.296C913.968 46.616 914.22 46.872 914.532 47.064C914.852 47.256 915.208 47.352 915.6 47.352C916 47.352 916.356 47.272 916.668 47.112C916.98 46.944 917.248 46.692 917.472 46.356C917.504 46.324 917.528 46.308 917.544 46.308C917.568 46.3 917.6 46.304 917.64 46.32L918.144 46.572C918.216 46.612 918.224 46.668 918.168 46.74C917.952 47.06 917.712 47.324 917.448 47.532C917.192 47.732 916.904 47.88 916.584 47.976C916.264 48.072 915.904 48.12 915.504 48.12C914.912 48.12 914.388 47.984 913.932 47.712C913.476 47.44 913.116 47.06 912.852 46.572C912.588 46.084 912.456 45.52 912.456 44.88C912.456 44.184 912.588 43.588 912.852 43.092C913.124 42.588 913.488 42.2 913.944 41.928C914.408 41.656 914.924 41.52 915.492 41.52C916.076 41.52 916.584 41.648 917.016 41.904C917.448 42.16 917.784 42.532 918.024 43.02C918.264 43.508 918.384 44.096 918.384 44.784C918.384 44.84 918.376 44.896 918.36 44.952C918.352 45.008 918.3 45.036 918.204 45.036H913.608C913.576 45.036 913.548 45.056 913.524 45.096C913.508 45.128 913.5 45.168 913.5 45.216ZM917.172 44.376C917.26 44.376 917.316 44.368 917.34 44.352C917.364 44.328 917.376 44.28 917.376 44.208C917.376 43.864 917.3 43.544 917.148 43.248C917.004 42.944 916.792 42.7 916.512 42.516C916.24 42.332 915.908 42.24 915.516 42.24C915.084 42.24 914.72 42.344 914.424 42.552C914.128 42.752 913.904 43.016 913.752 43.344C913.6 43.672 913.524 44.016 913.524 44.376H917.172ZM919.993 48C919.921 48 919.869 47.984 919.837 47.952C919.813 47.92 919.801 47.872 919.801 47.808V39.264C919.801 39.152 919.849 39.096 919.945 39.096H920.689C920.769 39.096 920.809 39.152 920.809 39.264V42.204C920.809 42.292 920.825 42.34 920.857 42.348C920.889 42.348 920.933 42.324 920.989 42.276C921.061 42.204 921.177 42.108 921.337 41.988C921.505 41.868 921.717 41.76 921.973 41.664C922.237 41.568 922.549 41.52 922.909 41.52C923.493 41.52 923.973 41.664 924.349 41.952C924.725 42.24 925.005 42.632 925.189 43.128C925.381 43.616 925.477 44.168 925.477 44.784C925.477 45.808 925.237 46.62 924.757 47.22C924.277 47.82 923.605 48.12 922.741 48.12C922.373 48.12 922.057 48.064 921.793 47.952C921.537 47.84 921.325 47.708 921.157 47.556C920.989 47.404 920.865 47.276 920.785 47.172C920.753 47.132 920.725 47.116 920.701 47.124C920.677 47.132 920.661 47.16 920.653 47.208L920.593 47.808C920.577 47.936 920.505 48 920.377 48H919.993ZM920.809 45.852C920.809 46.14 920.889 46.404 921.049 46.644C921.217 46.876 921.433 47.06 921.697 47.196C921.961 47.332 922.237 47.4 922.525 47.4C922.885 47.4 923.209 47.312 923.497 47.136C923.785 46.952 924.013 46.668 924.181 46.284C924.349 45.9 924.433 45.408 924.433 44.808C924.433 43.992 924.277 43.364 923.965 42.924C923.653 42.476 923.201 42.252 922.609 42.252C922.233 42.252 921.889 42.34 921.577 42.516C921.273 42.684 921.017 42.892 920.809 43.14V45.852ZM930.048 41.64C930.088 41.64 930.116 41.652 930.132 41.676C930.156 41.7 930.168 41.728 930.168 41.76V42.276C930.168 42.356 930.128 42.396 930.048 42.396H928.68C928.616 42.396 928.584 42.428 928.584 42.492V47.832C928.584 47.944 928.536 48 928.44 48H927.708C927.62 48 927.576 47.948 927.576 47.844V42.48C927.576 42.424 927.548 42.396 927.492 42.396H926.316C926.236 42.396 926.196 42.356 926.196 42.276V41.76C926.196 41.728 926.204 41.7 926.22 41.676C926.244 41.652 926.28 41.64 926.328 41.64H927.468C927.54 41.64 927.576 41.6 927.576 41.52V40.644C927.576 40.14 927.7 39.756 927.948 39.492C928.196 39.228 928.572 39.096 929.076 39.096H930.072C930.176 39.096 930.228 39.144 930.228 39.24V39.708C930.228 39.748 930.216 39.78 930.192 39.804C930.176 39.82 930.144 39.828 930.096 39.828H929.256C929.008 39.828 928.828 39.908 928.716 40.068C928.612 40.22 928.56 40.428 928.56 40.692V41.532C928.56 41.604 928.596 41.64 928.668 41.64H930.048ZM932.4 47.796C932.4 47.876 932.384 47.932 932.352 47.964C932.32 47.988 932.264 48 932.184 48H931.56C931.44 48 931.38 47.944 931.38 47.832L931.392 39.264C931.392 39.152 931.44 39.096 931.536 39.096H932.256C932.352 39.096 932.4 39.148 932.4 39.252V47.796ZM936.914 48.12C936.314 48.12 935.782 47.984 935.318 47.712C934.862 47.432 934.506 47.048 934.25 46.56C934.002 46.064 933.878 45.496 933.878 44.856C933.878 44.192 934.006 43.612 934.262 43.116C934.526 42.612 934.886 42.22 935.342 41.94C935.798 41.66 936.326 41.52 936.926 41.52C937.534 41.52 938.062 41.664 938.51 41.952C938.966 42.232 939.318 42.624 939.566 43.128C939.822 43.624 939.95 44.196 939.95 44.844C939.95 45.484 939.822 46.052 939.566 46.548C939.31 47.036 938.954 47.42 938.498 47.7C938.05 47.98 937.522 48.12 936.914 48.12ZM936.938 47.364C937.354 47.364 937.71 47.264 938.006 47.064C938.302 46.856 938.526 46.564 938.678 46.188C938.838 45.804 938.918 45.348 938.918 44.82C938.918 44.292 938.838 43.84 938.678 43.464C938.518 43.08 938.29 42.784 937.994 42.576C937.698 42.368 937.342 42.264 936.926 42.264C936.518 42.264 936.162 42.368 935.858 42.576C935.554 42.784 935.318 43.08 935.15 43.464C934.99 43.84 934.91 44.292 934.91 44.82C934.91 45.34 934.99 45.792 935.15 46.176C935.318 46.56 935.554 46.856 935.858 47.064C936.162 47.264 936.522 47.364 936.938 47.364ZM949.359 41.64C949.407 41.64 949.443 41.66 949.467 41.7C949.491 41.732 949.495 41.772 949.479 41.82L947.643 47.844C947.627 47.9 947.599 47.94 947.559 47.964C947.527 47.988 947.479 48 947.415 48H946.839C946.703 48 946.619 47.948 946.587 47.844L945.159 43.356C945.127 43.284 945.099 43.248 945.075 43.248C945.051 43.248 945.031 43.284 945.015 43.356L943.659 47.844C943.643 47.9 943.615 47.94 943.575 47.964C943.543 47.988 943.495 48 943.431 48H942.819C942.691 48 942.607 47.948 942.567 47.844L940.671 41.82C940.663 41.772 940.671 41.732 940.695 41.7C940.719 41.66 940.759 41.64 940.815 41.64H941.523C941.571 41.64 941.611 41.652 941.643 41.676C941.675 41.692 941.699 41.724 941.715 41.772L943.143 46.44C943.167 46.52 943.195 46.56 943.227 46.56C943.259 46.552 943.291 46.508 943.323 46.428L944.739 41.76C944.755 41.72 944.775 41.692 944.799 41.676C944.831 41.652 944.867 41.64 944.907 41.64H945.471C945.519 41.64 945.559 41.652 945.591 41.676C945.623 41.692 945.643 41.724 945.651 41.772L947.127 46.44C947.151 46.52 947.179 46.56 947.211 46.56C947.243 46.552 947.271 46.508 947.295 46.428L948.675 41.772C948.699 41.724 948.727 41.692 948.759 41.676C948.791 41.652 948.831 41.64 948.879 41.64H949.359Z" fill="black"/>
<path d="M833.937 41.688C833.937 42.28 833.801 42.768 833.529 43.152C833.257 43.536 832.885 43.82 832.413 44.004C831.941 44.188 831.393 44.28 830.769 44.28H828.729C828.657 44.28 828.621 44.316 828.621 44.388V47.82C828.621 47.94 828.561 48 828.441 48H827.625C827.569 48 827.529 47.988 827.505 47.964C827.481 47.94 827.469 47.9 827.469 47.844V39.264C827.469 39.152 827.517 39.096 827.613 39.096H830.637C831.269 39.096 831.833 39.184 832.329 39.36C832.825 39.536 833.217 39.816 833.505 40.2C833.793 40.584 833.937 41.08 833.937 41.688ZM832.761 41.652C832.761 41.244 832.669 40.916 832.485 40.668C832.309 40.42 832.057 40.244 831.729 40.14C831.409 40.028 831.025 39.972 830.577 39.972H828.777C828.673 39.972 828.621 40.02 828.621 40.116V43.236C828.621 43.348 828.657 43.404 828.729 43.404H830.661C831.293 43.404 831.801 43.264 832.185 42.984C832.569 42.704 832.761 42.26 832.761 41.652ZM837.557 48.12C836.957 48.12 836.425 47.984 835.961 47.712C835.505 47.432 835.149 47.048 834.893 46.56C834.645 46.064 834.521 45.496 834.521 44.856C834.521 44.192 834.649 43.612 834.905 43.116C835.169 42.612 835.529 42.22 835.985 41.94C836.441 41.66 836.969 41.52 837.569 41.52C838.177 41.52 838.705 41.664 839.153 41.952C839.609 42.232 839.961 42.624 840.209 43.128C840.465 43.624 840.593 44.196 840.593 44.844C840.593 45.484 840.465 46.052 840.209 46.548C839.953 47.036 839.597 47.42 839.141 47.7C838.693 47.98 838.165 48.12 837.557 48.12ZM837.581 47.364C837.997 47.364 838.353 47.264 838.649 47.064C838.945 46.856 839.169 46.564 839.321 46.188C839.481 45.804 839.561 45.348 839.561 44.82C839.561 44.292 839.481 43.84 839.321 43.464C839.161 43.08 838.933 42.784 838.637 42.576C838.341 42.368 837.985 42.264 837.569 42.264C837.161 42.264 836.805 42.368 836.501 42.576C836.197 42.784 835.961 43.08 835.793 43.464C835.633 43.84 835.553 44.292 835.553 44.82C835.553 45.34 835.633 45.792 835.793 46.176C835.961 46.56 836.197 46.856 836.501 47.064C836.805 47.264 837.165 47.364 837.581 47.364ZM850.001 41.64C850.049 41.64 850.085 41.66 850.109 41.7C850.133 41.732 850.137 41.772 850.121 41.82L848.285 47.844C848.269 47.9 848.241 47.94 848.201 47.964C848.169 47.988 848.121 48 848.057 48H847.481C847.345 48 847.261 47.948 847.229 47.844L845.801 43.356C845.769 43.284 845.741 43.248 845.717 43.248C845.693 43.248 845.673 43.284 845.657 43.356L844.301 47.844C844.285 47.9 844.257 47.94 844.217 47.964C844.185 47.988 844.137 48 844.073 48H843.461C843.333 48 843.249 47.948 843.209 47.844L841.313 41.82C841.305 41.772 841.313 41.732 841.337 41.7C841.361 41.66 841.401 41.64 841.457 41.64H842.165C842.213 41.64 842.253 41.652 842.285 41.676C842.317 41.692 842.341 41.724 842.357 41.772L843.785 46.44C843.809 46.52 843.837 46.56 843.869 46.56C843.901 46.552 843.933 46.508 843.965 46.428L845.381 41.76C845.397 41.72 845.417 41.692 845.441 41.676C845.473 41.652 845.509 41.64 845.549 41.64H846.113C846.161 41.64 846.201 41.652 846.233 41.676C846.265 41.692 846.285 41.724 846.293 41.772L847.769 46.44C847.793 46.52 847.821 46.56 847.853 46.56C847.885 46.552 847.913 46.508 847.937 46.428L849.317 41.772C849.341 41.724 849.369 41.692 849.401 41.676C849.433 41.652 849.473 41.64 849.521 41.64H850.001ZM851.877 45.216C851.877 45.608 851.969 45.968 852.153 46.296C852.345 46.616 852.597 46.872 852.909 47.064C853.229 47.256 853.585 47.352 853.977 47.352C854.377 47.352 854.733 47.272 855.045 47.112C855.357 46.944 855.625 46.692 855.849 46.356C855.881 46.324 855.905 46.308 855.921 46.308C855.945 46.3 855.977 46.304 856.017 46.32L856.521 46.572C856.593 46.612 856.601 46.668 856.545 46.74C856.329 47.06 856.089 47.324 855.825 47.532C855.569 47.732 855.281 47.88 854.961 47.976C854.641 48.072 854.281 48.12 853.881 48.12C853.289 48.12 852.765 47.984 852.309 47.712C851.853 47.44 851.493 47.06 851.229 46.572C850.965 46.084 850.833 45.52 850.833 44.88C850.833 44.184 850.965 43.588 851.229 43.092C851.501 42.588 851.865 42.2 852.321 41.928C852.785 41.656 853.301 41.52 853.869 41.52C854.453 41.52 854.961 41.648 855.393 41.904C855.825 42.16 856.161 42.532 856.401 43.02C856.641 43.508 856.761 44.096 856.761 44.784C856.761 44.84 856.753 44.896 856.737 44.952C856.729 45.008 856.677 45.036 856.581 45.036H851.985C851.953 45.036 851.925 45.056 851.901 45.096C851.885 45.128 851.877 45.168 851.877 45.216ZM855.549 44.376C855.637 44.376 855.693 44.368 855.717 44.352C855.741 44.328 855.753 44.28 855.753 44.208C855.753 43.864 855.677 43.544 855.525 43.248C855.381 42.944 855.169 42.7 854.889 42.516C854.617 42.332 854.285 42.24 853.893 42.24C853.461 42.24 853.097 42.344 852.801 42.552C852.505 42.752 852.281 43.016 852.129 43.344C851.977 43.672 851.901 44.016 851.901 44.376H855.549ZM858.346 48C858.29 48 858.246 47.988 858.214 47.964C858.19 47.932 858.178 47.892 858.178 47.844V41.796C858.178 41.692 858.222 41.64 858.31 41.64H859.006C859.094 41.64 859.138 41.684 859.138 41.772V42.552C859.138 42.6 859.15 42.628 859.174 42.636C859.198 42.644 859.23 42.628 859.27 42.588C859.478 42.34 859.682 42.14 859.882 41.988C860.09 41.828 860.298 41.712 860.506 41.64C860.714 41.56 860.922 41.52 861.13 41.52C861.41 41.52 861.55 41.572 861.55 41.676V42.396C861.55 42.476 861.514 42.508 861.442 42.492C861.37 42.484 861.286 42.476 861.19 42.468C861.102 42.46 861.006 42.456 860.902 42.456C860.726 42.456 860.538 42.496 860.338 42.576C860.138 42.648 859.95 42.752 859.774 42.888C859.606 43.024 859.466 43.176 859.354 43.344C859.242 43.512 859.186 43.68 859.186 43.848V47.82C859.186 47.94 859.126 48 859.006 48H858.346ZM863.291 45.216C863.291 45.608 863.383 45.968 863.567 46.296C863.759 46.616 864.011 46.872 864.323 47.064C864.643 47.256 864.999 47.352 865.391 47.352C865.791 47.352 866.147 47.272 866.459 47.112C866.771 46.944 867.039 46.692 867.263 46.356C867.295 46.324 867.319 46.308 867.335 46.308C867.359 46.3 867.391 46.304 867.431 46.32L867.935 46.572C868.007 46.612 868.015 46.668 867.959 46.74C867.743 47.06 867.503 47.324 867.239 47.532C866.983 47.732 866.695 47.88 866.375 47.976C866.055 48.072 865.695 48.12 865.295 48.12C864.703 48.12 864.179 47.984 863.723 47.712C863.267 47.44 862.907 47.06 862.643 46.572C862.379 46.084 862.247 45.52 862.247 44.88C862.247 44.184 862.379 43.588 862.643 43.092C862.915 42.588 863.279 42.2 863.735 41.928C864.199 41.656 864.715 41.52 865.283 41.52C865.867 41.52 866.375 41.648 866.807 41.904C867.239 42.16 867.575 42.532 867.815 43.02C868.055 43.508 868.175 44.096 868.175 44.784C868.175 44.84 868.167 44.896 868.151 44.952C868.143 45.008 868.091 45.036 867.995 45.036H863.399C863.367 45.036 863.339 45.056 863.315 45.096C863.299 45.128 863.291 45.168 863.291 45.216ZM866.963 44.376C867.051 44.376 867.107 44.368 867.131 44.352C867.155 44.328 867.167 44.28 867.167 44.208C867.167 43.864 867.091 43.544 866.939 43.248C866.795 42.944 866.583 42.7 866.303 42.516C866.031 42.332 865.699 42.24 865.307 42.24C864.875 42.24 864.511 42.344 864.215 42.552C863.919 42.752 863.695 43.016 863.543 43.344C863.391 43.672 863.315 44.016 863.315 44.376H866.963ZM874.116 48C874.06 48 874.016 47.988 873.984 47.964C873.96 47.932 873.948 47.888 873.948 47.832V47.328C873.948 47.264 873.932 47.228 873.9 47.22C873.876 47.212 873.84 47.232 873.792 47.28C873.704 47.36 873.576 47.468 873.408 47.604C873.248 47.74 873.044 47.86 872.796 47.964C872.548 48.068 872.252 48.12 871.908 48.12C871.404 48.12 870.952 48 870.552 47.76C870.152 47.52 869.832 47.164 869.592 46.692C869.36 46.212 869.244 45.62 869.244 44.916C869.244 44.236 869.36 43.644 869.592 43.14C869.832 42.628 870.164 42.232 870.588 41.952C871.02 41.664 871.508 41.52 872.052 41.52C872.444 41.52 872.772 41.584 873.036 41.712C873.3 41.84 873.532 41.988 873.732 42.156C873.804 42.212 873.852 42.236 873.876 42.228C873.908 42.212 873.924 42.16 873.924 42.072V39.252C873.924 39.148 873.968 39.096 874.056 39.096H874.788C874.876 39.096 874.92 39.148 874.92 39.252V47.808C874.92 47.88 874.908 47.932 874.884 47.964C874.86 47.988 874.808 48 874.728 48H874.116ZM873.912 43.044C873.664 42.796 873.412 42.604 873.156 42.468C872.9 42.332 872.612 42.264 872.292 42.264C871.908 42.264 871.56 42.364 871.248 42.564C870.944 42.756 870.704 43.048 870.528 43.44C870.36 43.832 870.276 44.312 870.276 44.88C870.276 45.464 870.364 45.944 870.54 46.32C870.716 46.688 870.952 46.96 871.248 47.136C871.544 47.304 871.868 47.388 872.22 47.388C872.548 47.388 872.836 47.312 873.084 47.16C873.34 47.008 873.54 46.82 873.684 46.596C873.836 46.372 873.912 46.152 873.912 45.936V43.044ZM879.534 48C879.462 48 879.41 47.984 879.378 47.952C879.354 47.92 879.342 47.872 879.342 47.808V39.264C879.342 39.152 879.39 39.096 879.486 39.096H880.23C880.31 39.096 880.35 39.152 880.35 39.264V42.204C880.35 42.292 880.366 42.34 880.398 42.348C880.43 42.348 880.474 42.324 880.53 42.276C880.602 42.204 880.718 42.108 880.878 41.988C881.046 41.868 881.258 41.76 881.514 41.664C881.778 41.568 882.09 41.52 882.45 41.52C883.034 41.52 883.514 41.664 883.89 41.952C884.266 42.24 884.546 42.632 884.73 43.128C884.922 43.616 885.018 44.168 885.018 44.784C885.018 45.808 884.778 46.62 884.298 47.22C883.818 47.82 883.146 48.12 882.282 48.12C881.914 48.12 881.598 48.064 881.334 47.952C881.078 47.84 880.866 47.708 880.698 47.556C880.53 47.404 880.406 47.276 880.326 47.172C880.294 47.132 880.266 47.116 880.242 47.124C880.218 47.132 880.202 47.16 880.194 47.208L880.134 47.808C880.118 47.936 880.046 48 879.918 48H879.534ZM880.35 45.852C880.35 46.14 880.43 46.404 880.59 46.644C880.758 46.876 880.974 47.06 881.238 47.196C881.502 47.332 881.778 47.4 882.066 47.4C882.426 47.4 882.75 47.312 883.038 47.136C883.326 46.952 883.554 46.668 883.722 46.284C883.89 45.9 883.974 45.408 883.974 44.808C883.974 43.992 883.818 43.364 883.506 42.924C883.194 42.476 882.742 42.252 882.15 42.252C881.774 42.252 881.43 42.34 881.118 42.516C880.814 42.684 880.558 42.892 880.35 43.14V45.852ZM886.604 49.98C886.372 49.98 886.192 49.972 886.064 49.956C885.936 49.94 885.872 49.896 885.872 49.824V49.356C885.872 49.3 885.892 49.26 885.932 49.236C885.98 49.212 886.072 49.2 886.208 49.2H886.964C887.14 49.2 887.3 49.14 887.444 49.02C887.588 48.908 887.708 48.764 887.804 48.588C887.9 48.412 887.964 48.232 887.996 48.048C888.028 47.872 888.016 47.716 887.96 47.58L885.668 41.844C885.652 41.788 885.652 41.74 885.668 41.7C885.692 41.66 885.736 41.64 885.8 41.64H886.544C886.592 41.64 886.632 41.652 886.664 41.676C886.696 41.692 886.72 41.724 886.736 41.772L888.524 46.428C888.556 46.5 888.592 46.536 888.632 46.536C888.672 46.536 888.708 46.488 888.74 46.392L890.504 41.772C890.528 41.724 890.552 41.692 890.576 41.676C890.6 41.652 890.632 41.64 890.672 41.64H891.236C891.292 41.64 891.332 41.66 891.356 41.7C891.38 41.732 891.38 41.772 891.356 41.82L888.716 48.564C888.604 48.852 888.48 49.088 888.344 49.272C888.208 49.456 888.052 49.596 887.876 49.692C887.708 49.796 887.52 49.868 887.312 49.908C887.104 49.956 886.868 49.98 886.604 49.98Z" fill="#6C6C6C"/>
</svg>
