<svg width="201" height="62" viewBox="0 0 201 62" fill="none" xmlns="http://www.w3.org/2000/svg">
<path d="M0 0H201V62H0V0Z" fill="#AC1313"/>
<path d="M43.792 34.084C43.176 34.084 42.624 33.984 42.136 33.784C41.648 33.584 41.256 33.288 40.96 32.896C40.672 32.504 40.52 32.032 40.504 31.48H42.688C42.72 31.792 42.828 32.032 43.012 32.2C43.196 32.36 43.436 32.44 43.732 32.44C44.036 32.44 44.276 32.372 44.452 32.236C44.628 32.092 44.716 31.896 44.716 31.648C44.716 31.44 44.644 31.268 44.5 31.132C44.364 30.996 44.192 30.884 43.984 30.796C43.784 30.708 43.496 30.608 43.12 30.496C42.576 30.328 42.132 30.16 41.788 29.992C41.444 29.824 41.148 29.576 40.9 29.248C40.652 28.92 40.528 28.492 40.528 27.964C40.528 27.18 40.812 26.568 41.38 26.128C41.948 25.68 42.688 25.456 43.6 25.456C44.528 25.456 45.276 25.68 45.844 26.128C46.412 26.568 46.716 27.184 46.756 27.976H44.536C44.52 27.704 44.42 27.492 44.236 27.34C44.052 27.18 43.816 27.1 43.528 27.1C43.28 27.1 43.08 27.168 42.928 27.304C42.776 27.432 42.7 27.62 42.7 27.868C42.7 28.14 42.828 28.352 43.084 28.504C43.34 28.656 43.74 28.82 44.284 28.996C44.828 29.18 45.268 29.356 45.604 29.524C45.948 29.692 46.244 29.936 46.492 30.256C46.74 30.576 46.864 30.988 46.864 31.492C46.864 31.972 46.74 32.408 46.492 32.8C46.252 33.192 45.9 33.504 45.436 33.736C44.972 33.968 44.424 34.084 43.792 34.084ZM56.4228 25.576V34H54.3708V30.532H51.1788V34H49.1268V25.576H51.1788V28.876H54.3708V25.576H56.4228ZM62.8882 34.084C62.0962 34.084 61.3682 33.9 60.7042 33.532C60.0482 33.164 59.5242 32.652 59.1322 31.996C58.7482 31.332 58.5562 30.588 58.5562 29.764C58.5562 28.94 58.7482 28.2 59.1322 27.544C59.5242 26.888 60.0482 26.376 60.7042 26.008C61.3682 25.64 62.0962 25.456 62.8882 25.456C63.6802 25.456 64.4042 25.64 65.0602 26.008C65.7242 26.376 66.2442 26.888 66.6202 27.544C67.0042 28.2 67.1962 28.94 67.1962 29.764C67.1962 30.588 67.0042 31.332 66.6202 31.996C66.2362 32.652 65.7162 33.164 65.0602 33.532C64.4042 33.9 63.6802 34.084 62.8882 34.084ZM62.8882 32.212C63.5602 32.212 64.0962 31.988 64.4962 31.54C64.9042 31.092 65.1082 30.5 65.1082 29.764C65.1082 29.02 64.9042 28.428 64.4962 27.988C64.0962 27.54 63.5602 27.316 62.8882 27.316C62.2082 27.316 61.6642 27.536 61.2562 27.976C60.8562 28.416 60.6562 29.012 60.6562 29.764C60.6562 30.508 60.8562 31.104 61.2562 31.552C61.6642 31.992 62.2082 32.212 62.8882 32.212ZM75.7578 28.288C75.7578 28.776 75.6458 29.224 75.4218 29.632C75.1978 30.032 74.8538 30.356 74.3898 30.604C73.9258 30.852 73.3498 30.976 72.6618 30.976H71.3898V34H69.3378V25.576H72.6618C73.3338 25.576 73.9018 25.692 74.3658 25.924C74.8298 26.156 75.1778 26.476 75.4098 26.884C75.6418 27.292 75.7578 27.76 75.7578 28.288ZM72.5058 29.344C72.8978 29.344 73.1898 29.252 73.3818 29.068C73.5738 28.884 73.6698 28.624 73.6698 28.288C73.6698 27.952 73.5738 27.692 73.3818 27.508C73.1898 27.324 72.8978 27.232 72.5058 27.232H71.3898V29.344H72.5058ZM81.021 29.776C81.021 28.944 81.201 28.204 81.561 27.556C81.921 26.9 82.421 26.392 83.061 26.032C83.709 25.664 84.441 25.48 85.257 25.48C86.257 25.48 87.113 25.744 87.825 26.272C88.537 26.8 89.013 27.52 89.253 28.432H86.997C86.829 28.08 86.589 27.812 86.277 27.628C85.973 27.444 85.625 27.352 85.233 27.352C84.601 27.352 84.089 27.572 83.697 28.012C83.305 28.452 83.109 29.04 83.109 29.776C83.109 30.512 83.305 31.1 83.697 31.54C84.089 31.98 84.601 32.2 85.233 32.2C85.625 32.2 85.973 32.108 86.277 31.924C86.589 31.74 86.829 31.472 86.997 31.12H89.253C89.013 32.032 88.537 32.752 87.825 33.28C87.113 33.8 86.257 34.06 85.257 34.06C84.441 34.06 83.709 33.88 83.061 33.52C82.421 33.152 81.921 32.644 81.561 31.996C81.201 31.348 81.021 30.608 81.021 29.776ZM95.4936 34.084C94.7016 34.084 93.9736 33.9 93.3096 33.532C92.6536 33.164 92.1296 32.652 91.7376 31.996C91.3536 31.332 91.1616 30.588 91.1616 29.764C91.1616 28.94 91.3536 28.2 91.7376 27.544C92.1296 26.888 92.6536 26.376 93.3096 26.008C93.9736 25.64 94.7016 25.456 95.4936 25.456C96.2856 25.456 97.0096 25.64 97.6656 26.008C98.3296 26.376 98.8496 26.888 99.2256 27.544C99.6096 28.2 99.8016 28.94 99.8016 29.764C99.8016 30.588 99.6096 31.332 99.2256 31.996C98.8416 32.652 98.3216 33.164 97.6656 33.532C97.0096 33.9 96.2856 34.084 95.4936 34.084ZM95.4936 32.212C96.1656 32.212 96.7016 31.988 97.1016 31.54C97.5096 31.092 97.7136 30.5 97.7136 29.764C97.7136 29.02 97.5096 28.428 97.1016 27.988C96.7016 27.54 96.1656 27.316 95.4936 27.316C94.8136 27.316 94.2696 27.536 93.8616 27.976C93.4616 28.416 93.2616 29.012 93.2616 29.764C93.2616 30.508 93.4616 31.104 93.8616 31.552C94.2696 31.992 94.8136 32.212 95.4936 32.212ZM103.995 32.416H106.683V34H101.943V25.576H103.995V32.416ZM110.714 32.416H113.402V34H108.662V25.576H110.714V32.416ZM117.433 27.22V28.924H120.181V30.508H117.433V32.356H120.541V34H115.381V25.576H120.541V27.22H117.433ZM122.525 29.776C122.525 28.944 122.705 28.204 123.065 27.556C123.425 26.9 123.925 26.392 124.565 26.032C125.213 25.664 125.945 25.48 126.761 25.48C127.761 25.48 128.617 25.744 129.329 26.272C130.041 26.8 130.517 27.52 130.757 28.432H128.501C128.333 28.08 128.093 27.812 127.781 27.628C127.477 27.444 127.129 27.352 126.737 27.352C126.105 27.352 125.593 27.572 125.201 28.012C124.809 28.452 124.613 29.04 124.613 29.776C124.613 30.512 124.809 31.1 125.201 31.54C125.593 31.98 126.105 32.2 126.737 32.2C127.129 32.2 127.477 32.108 127.781 31.924C128.093 31.74 128.333 31.472 128.501 31.12H130.757C130.517 32.032 130.041 32.752 129.329 33.28C128.617 33.8 127.761 34.06 126.761 34.06C125.945 34.06 125.213 33.88 124.565 33.52C123.925 33.152 123.425 32.644 123.065 31.996C122.705 31.348 122.525 30.608 122.525 29.776ZM139.074 25.576V27.22H136.842V34H134.79V27.22H132.558V25.576H139.074ZM143.155 25.576V34H141.103V25.576H143.155ZM149.626 34.084C148.834 34.084 148.106 33.9 147.442 33.532C146.786 33.164 146.262 32.652 145.87 31.996C145.486 31.332 145.294 30.588 145.294 29.764C145.294 28.94 145.486 28.2 145.87 27.544C146.262 26.888 146.786 26.376 147.442 26.008C148.106 25.64 148.834 25.456 149.626 25.456C150.418 25.456 151.142 25.64 151.798 26.008C152.462 26.376 152.982 26.888 153.358 27.544C153.742 28.2 153.934 28.94 153.934 29.764C153.934 30.588 153.742 31.332 153.358 31.996C152.974 32.652 152.454 33.164 151.798 33.532C151.142 33.9 150.418 34.084 149.626 34.084ZM149.626 32.212C150.298 32.212 150.834 31.988 151.234 31.54C151.642 31.092 151.846 30.5 151.846 29.764C151.846 29.02 151.642 28.428 151.234 27.988C150.834 27.54 150.298 27.316 149.626 27.316C148.946 27.316 148.402 27.536 147.994 27.976C147.594 28.416 147.394 29.012 147.394 29.764C147.394 30.508 147.594 31.104 147.994 31.552C148.402 31.992 148.946 32.212 149.626 32.212ZM163.612 34H161.56L158.128 28.804V34H156.076V25.576H158.128L161.56 30.796V25.576H163.612V34Z" fill="white"/>
</svg>
