<svg width="500" height="46" viewBox="0 0 500 46" fill="none" xmlns="http://www.w3.org/2000/svg">
<path d="M0.5 1.44873H319.5V45.4487H0.5V1.44873Z" stroke="#EBEBEB"/>
<path d="M48.1213 27.8427L48.1143 28.9487H41.9333V18.9177H48.1143V20.0237H43.2913V23.3557H47.1973V24.4197H43.2913V27.8427H48.1213ZM50.704 22.8867C50.858 22.7141 51.0213 22.5577 51.194 22.4177C51.3667 22.2777 51.5487 22.1587 51.74 22.0607C51.936 21.9581 52.1413 21.8811 52.356 21.8297C52.5753 21.7737 52.811 21.7457 53.063 21.7457C53.4503 21.7457 53.791 21.8111 54.085 21.9417C54.3837 22.0677 54.631 22.2497 54.827 22.4877C55.0277 22.7211 55.1793 23.0034 55.282 23.3347C55.3847 23.6661 55.436 24.0324 55.436 24.4337V28.9487H54.183V24.4337C54.183 23.8971 54.0593 23.4817 53.812 23.1877C53.5693 22.8891 53.1983 22.7397 52.699 22.7397C52.3303 22.7397 51.985 22.8284 51.663 23.0057C51.3457 23.1831 51.0517 23.4234 50.781 23.7267V28.9487H49.528V21.8577H50.277C50.4543 21.8577 50.564 21.9441 50.606 22.1167L50.704 22.8867ZM59.416 29.0607C58.856 29.0607 58.4243 28.9044 58.121 28.5917C57.8223 28.2791 57.673 27.8287 57.673 27.2407V22.9007H56.819C56.7443 22.9007 56.6813 22.8797 56.63 22.8377C56.5786 22.7911 56.553 22.7211 56.553 22.6277V22.1307L57.715 21.9837L58.002 19.7927C58.016 19.7227 58.0463 19.6667 58.093 19.6247C58.1443 19.5781 58.2096 19.5547 58.289 19.5547H58.919V21.9977H60.97V22.9007H58.919V27.1567C58.919 27.4554 58.9913 27.6771 59.136 27.8217C59.2806 27.9664 59.4673 28.0387 59.696 28.0387C59.8266 28.0387 59.9386 28.0224 60.032 27.9897C60.13 27.9524 60.214 27.9127 60.284 27.8707C60.354 27.8287 60.4123 27.7914 60.459 27.7587C60.5103 27.7214 60.5546 27.7027 60.592 27.7027C60.6573 27.7027 60.7156 27.7424 60.767 27.8217L61.131 28.4167C60.9163 28.6174 60.6573 28.7761 60.354 28.8927C60.0506 29.0047 59.738 29.0607 59.416 29.0607ZM66.9615 24.6297C66.9615 24.3404 66.9195 24.0767 66.8355 23.8387C66.7562 23.5961 66.6372 23.3884 66.4785 23.2157C66.3245 23.0384 66.1355 22.9031 65.9115 22.8097C65.6875 22.7117 65.4332 22.6627 65.1485 22.6627C64.5512 22.6627 64.0775 22.8377 63.7275 23.1877C63.3822 23.5331 63.1675 24.0137 63.0835 24.6297H66.9615ZM67.9695 27.9547C67.8155 28.1414 67.6312 28.3047 67.4165 28.4447C67.2018 28.5801 66.9708 28.6921 66.7235 28.7807C66.4808 28.8694 66.2288 28.9347 65.9675 28.9767C65.7062 29.0234 65.4472 29.0467 65.1905 29.0467C64.7005 29.0467 64.2478 28.9651 63.8325 28.8017C63.4218 28.6337 63.0648 28.3911 62.7615 28.0737C62.4628 27.7517 62.2295 27.3551 62.0615 26.8837C61.8935 26.4124 61.8095 25.8711 61.8095 25.2597C61.8095 24.7651 61.8842 24.3031 62.0335 23.8737C62.1875 23.4444 62.4068 23.0734 62.6915 22.7607C62.9762 22.4434 63.3238 22.1961 63.7345 22.0187C64.1452 21.8367 64.6072 21.7457 65.1205 21.7457C65.5452 21.7457 65.9372 21.8181 66.2965 21.9627C66.6605 22.1027 66.9732 22.3081 67.2345 22.5787C67.5005 22.8447 67.7082 23.1761 67.8575 23.5727C68.0068 23.9647 68.0815 24.4127 68.0815 24.9167C68.0815 25.1127 68.0605 25.2434 68.0185 25.3087C67.9765 25.3741 67.8972 25.4067 67.7805 25.4067H63.0415C63.0555 25.8547 63.1162 26.2444 63.2235 26.5757C63.3355 26.9071 63.4895 27.1847 63.6855 27.4087C63.8815 27.6281 64.1148 27.7937 64.3855 27.9057C64.6562 28.0131 64.9595 28.0667 65.2955 28.0667C65.6082 28.0667 65.8765 28.0317 66.1005 27.9617C66.3292 27.8871 66.5252 27.8077 66.6885 27.7237C66.8518 27.6397 66.9872 27.5627 67.0945 27.4927C67.2065 27.4181 67.3022 27.3807 67.3815 27.3807C67.4842 27.3807 67.5635 27.4204 67.6195 27.4997L67.9695 27.9547ZM70.795 23.2787C71.019 22.7934 71.2943 22.4154 71.621 22.1447C71.9477 21.8694 72.3467 21.7317 72.818 21.7317C72.9673 21.7317 73.1097 21.7481 73.245 21.7807C73.385 21.8134 73.5087 21.8647 73.616 21.9347L73.525 22.8657C73.497 22.9824 73.427 23.0407 73.315 23.0407C73.2497 23.0407 73.154 23.0267 73.028 22.9987C72.902 22.9707 72.7597 22.9567 72.601 22.9567C72.377 22.9567 72.1763 22.9894 71.999 23.0547C71.8263 23.1201 71.67 23.2181 71.53 23.3487C71.3947 23.4747 71.271 23.6334 71.159 23.8247C71.0517 24.0114 70.9537 24.2261 70.865 24.4687V28.9487H69.612V21.8577H70.326C70.4613 21.8577 70.5547 21.8834 70.606 21.9347C70.6573 21.9861 70.6923 22.0747 70.711 22.2007L70.795 23.2787ZM83.7554 21.8577L79.8004 31.0417C79.7584 31.1351 79.7047 31.2097 79.6394 31.2657C79.5787 31.3217 79.4831 31.3497 79.3524 31.3497H78.4284L79.7234 28.5357L76.7974 21.8577H77.8754C77.9827 21.8577 78.0667 21.8857 78.1274 21.9417C78.1927 21.9931 78.2371 22.0514 78.2604 22.1167L80.1574 26.5827C80.2321 26.7787 80.2951 26.9841 80.3464 27.1987C80.4117 26.9794 80.4817 26.7717 80.5564 26.5757L82.3974 22.1167C82.4254 22.0421 82.4721 21.9814 82.5374 21.9347C82.6074 21.8834 82.6844 21.8577 82.7684 21.8577H83.7554ZM87.6537 21.7457C88.1717 21.7457 88.6384 21.8321 89.0537 22.0047C89.4691 22.1774 89.8237 22.4224 90.1177 22.7397C90.4117 23.0571 90.6357 23.4421 90.7897 23.8947C90.9484 24.3427 91.0277 24.8444 91.0277 25.3997C91.0277 25.9597 90.9484 26.4637 90.7897 26.9117C90.6357 27.3597 90.4117 27.7424 90.1177 28.0597C89.8237 28.3771 89.4691 28.6221 89.0537 28.7947C88.6384 28.9627 88.1717 29.0467 87.6537 29.0467C87.1311 29.0467 86.6597 28.9627 86.2397 28.7947C85.8244 28.6221 85.4697 28.3771 85.1757 28.0597C84.8817 27.7424 84.6554 27.3597 84.4967 26.9117C84.3427 26.4637 84.2657 25.9597 84.2657 25.3997C84.2657 24.8444 84.3427 24.3427 84.4967 23.8947C84.6554 23.4421 84.8817 23.0571 85.1757 22.7397C85.4697 22.4224 85.8244 22.1774 86.2397 22.0047C86.6597 21.8321 87.1311 21.7457 87.6537 21.7457ZM87.6537 28.0737C88.3537 28.0737 88.8764 27.8404 89.2217 27.3737C89.5671 26.9024 89.7397 26.2467 89.7397 25.4067C89.7397 24.5621 89.5671 23.9041 89.2217 23.4327C88.8764 22.9614 88.3537 22.7257 87.6537 22.7257C87.2991 22.7257 86.9887 22.7864 86.7227 22.9077C86.4614 23.0291 86.2421 23.2041 86.0647 23.4327C85.8921 23.6614 85.7614 23.9437 85.6727 24.2797C85.5887 24.6111 85.5467 24.9867 85.5467 25.4067C85.5467 26.2467 85.7194 26.9024 86.0647 27.3737C86.4147 27.8404 86.9444 28.0737 87.6537 28.0737ZM98.4391 21.8577V28.9487H97.6971C97.5198 28.9487 97.4078 28.8624 97.3611 28.6897L97.2631 27.9267C96.9551 28.2674 96.6098 28.5427 96.2271 28.7527C95.8444 28.9581 95.4058 29.0607 94.9111 29.0607C94.5238 29.0607 94.1808 28.9977 93.8821 28.8717C93.5881 28.7411 93.3408 28.5591 93.1401 28.3257C92.9394 28.0924 92.7878 27.8101 92.6851 27.4787C92.5871 27.1474 92.5381 26.7811 92.5381 26.3797V21.8577H93.7841V26.3797C93.7841 26.9164 93.9054 27.3317 94.1481 27.6257C94.3954 27.9197 94.7711 28.0667 95.2751 28.0667C95.6438 28.0667 95.9868 27.9804 96.3041 27.8077C96.6261 27.6304 96.9224 27.3877 97.1931 27.0797V21.8577H98.4391ZM101.598 23.2787C101.822 22.7934 102.097 22.4154 102.424 22.1447C102.75 21.8694 103.149 21.7317 103.621 21.7317C103.77 21.7317 103.912 21.7481 104.048 21.7807C104.188 21.8134 104.311 21.8647 104.419 21.9347L104.328 22.8657C104.3 22.9824 104.23 23.0407 104.118 23.0407C104.052 23.0407 103.957 23.0267 103.831 22.9987C103.705 22.9707 103.562 22.9567 103.404 22.9567C103.18 22.9567 102.979 22.9894 102.802 23.0547C102.629 23.1201 102.473 23.2181 102.333 23.3487C102.197 23.4747 102.074 23.6334 101.962 23.8247C101.854 24.0114 101.756 24.2261 101.668 24.4687V28.9487H100.415V21.8577H101.129C101.264 21.8577 101.357 21.8834 101.409 21.9347C101.46 21.9861 101.495 22.0747 101.514 22.2007L101.598 23.2787ZM113.542 24.6297C113.542 24.3404 113.5 24.0767 113.416 23.8387C113.336 23.5961 113.217 23.3884 113.059 23.2157C112.905 23.0384 112.716 22.9031 112.492 22.8097C112.268 22.7117 112.013 22.6627 111.729 22.6627C111.131 22.6627 110.658 22.8377 110.308 23.1877C109.962 23.5331 109.748 24.0137 109.664 24.6297H113.542ZM114.55 27.9547C114.396 28.1414 114.211 28.3047 113.997 28.4447C113.782 28.5801 113.551 28.6921 113.304 28.7807C113.061 28.8694 112.809 28.9347 112.548 28.9767C112.286 29.0234 112.027 29.0467 111.771 29.0467C111.281 29.0467 110.828 28.9651 110.413 28.8017C110.002 28.6337 109.645 28.3911 109.342 28.0737C109.043 27.7517 108.81 27.3551 108.642 26.8837C108.474 26.4124 108.39 25.8711 108.39 25.2597C108.39 24.7651 108.464 24.3031 108.614 23.8737C108.768 23.4444 108.987 23.0734 109.272 22.7607C109.556 22.4434 109.904 22.1961 110.315 22.0187C110.725 21.8367 111.187 21.7457 111.701 21.7457C112.125 21.7457 112.517 21.8181 112.877 21.9627C113.241 22.1027 113.553 22.3081 113.815 22.5787C114.081 22.8447 114.288 23.1761 114.438 23.5727C114.587 23.9647 114.662 24.4127 114.662 24.9167C114.662 25.1127 114.641 25.2434 114.599 25.3087C114.557 25.3741 114.477 25.4067 114.361 25.4067H109.622C109.636 25.8547 109.696 26.2444 109.804 26.5757C109.916 26.9071 110.07 27.1847 110.266 27.4087C110.462 27.6281 110.695 27.7937 110.966 27.9057C111.236 28.0131 111.54 28.0667 111.876 28.0667C112.188 28.0667 112.457 28.0317 112.681 27.9617C112.909 27.8871 113.105 27.8077 113.269 27.7237C113.432 27.6397 113.567 27.5627 113.675 27.4927C113.787 27.4181 113.882 27.3807 113.962 27.3807C114.064 27.3807 114.144 27.4204 114.2 27.4997L114.55 27.9547ZM116.192 28.9487V21.8577H116.941C117.118 21.8577 117.228 21.9441 117.27 22.1167L117.361 22.8447C117.622 22.5227 117.916 22.2591 118.243 22.0537C118.57 21.8484 118.948 21.7457 119.377 21.7457C119.853 21.7457 120.238 21.8787 120.532 22.1447C120.831 22.4107 121.045 22.7701 121.176 23.2227C121.279 22.9661 121.409 22.7444 121.568 22.5577C121.731 22.3711 121.913 22.2171 122.114 22.0957C122.315 21.9744 122.527 21.8857 122.751 21.8297C122.98 21.7737 123.211 21.7457 123.444 21.7457C123.817 21.7457 124.149 21.8064 124.438 21.9277C124.732 22.0444 124.979 22.2171 125.18 22.4457C125.385 22.6744 125.542 22.9567 125.649 23.2927C125.756 23.6241 125.81 24.0044 125.81 24.4337V28.9487H124.557V24.4337C124.557 23.8784 124.436 23.4584 124.193 23.1737C123.95 22.8844 123.6 22.7397 123.143 22.7397C122.938 22.7397 122.742 22.7771 122.555 22.8517C122.373 22.9217 122.212 23.0267 122.072 23.1667C121.932 23.3067 121.82 23.4841 121.736 23.6987C121.657 23.9087 121.617 24.1537 121.617 24.4337V28.9487H120.364V24.4337C120.364 23.8644 120.25 23.4397 120.021 23.1597C119.792 22.8797 119.459 22.7397 119.02 22.7397C118.712 22.7397 118.427 22.8237 118.166 22.9917C117.905 23.1551 117.664 23.3791 117.445 23.6637V28.9487H116.192ZM131.547 25.7567C130.973 25.7754 130.483 25.8221 130.077 25.8967C129.675 25.9667 129.346 26.0601 129.09 26.1767C128.838 26.2934 128.653 26.4311 128.537 26.5897C128.425 26.7484 128.369 26.9257 128.369 27.1217C128.369 27.3084 128.399 27.4694 128.46 27.6047C128.52 27.7401 128.602 27.8521 128.705 27.9407C128.812 28.0247 128.936 28.0877 129.076 28.1297C129.22 28.1671 129.374 28.1857 129.538 28.1857C129.757 28.1857 129.958 28.1647 130.14 28.1227C130.322 28.0761 130.492 28.0107 130.651 27.9267C130.814 27.8427 130.968 27.7424 131.113 27.6257C131.262 27.5091 131.407 27.3761 131.547 27.2267V25.7567ZM127.522 22.8587C127.914 22.4807 128.336 22.1984 128.789 22.0117C129.241 21.8251 129.743 21.7317 130.294 21.7317C130.69 21.7317 131.043 21.7971 131.351 21.9277C131.659 22.0584 131.918 22.2404 132.128 22.4737C132.338 22.7071 132.496 22.9894 132.604 23.3207C132.711 23.6521 132.765 24.0161 132.765 24.4127V28.9487H132.212C132.09 28.9487 131.997 28.9301 131.932 28.8927C131.866 28.8507 131.815 28.7714 131.778 28.6547L131.638 27.9827C131.451 28.1554 131.269 28.3094 131.092 28.4447C130.914 28.5754 130.728 28.6874 130.532 28.7807C130.336 28.8694 130.126 28.9371 129.902 28.9837C129.682 29.0351 129.437 29.0607 129.167 29.0607C128.891 29.0607 128.632 29.0234 128.39 28.9487C128.147 28.8694 127.935 28.7527 127.753 28.5987C127.575 28.4447 127.433 28.2511 127.326 28.0177C127.223 27.7797 127.172 27.4997 127.172 27.1777C127.172 26.8977 127.249 26.6294 127.403 26.3727C127.557 26.1114 127.806 25.8804 128.152 25.6797C128.497 25.4791 128.947 25.3157 129.503 25.1897C130.058 25.0591 130.739 24.9844 131.547 24.9657V24.4127C131.547 23.8621 131.428 23.4467 131.19 23.1667C130.952 22.8821 130.604 22.7397 130.147 22.7397C129.839 22.7397 129.58 22.7794 129.37 22.8587C129.164 22.9334 128.985 23.0197 128.831 23.1177C128.681 23.2111 128.551 23.2974 128.439 23.3767C128.331 23.4514 128.224 23.4887 128.117 23.4887C128.033 23.4887 127.96 23.4677 127.9 23.4257C127.839 23.3791 127.788 23.3231 127.746 23.2577L127.522 22.8587ZM135.979 21.8577V28.9487H134.733V21.8577H135.979ZM136.245 19.6317C136.245 19.7531 136.219 19.8674 136.168 19.9747C136.121 20.0774 136.056 20.1707 135.972 20.2547C135.892 20.3341 135.797 20.3971 135.685 20.4437C135.577 20.4904 135.463 20.5137 135.342 20.5137C135.22 20.5137 135.106 20.4904 134.999 20.4437C134.896 20.3971 134.805 20.3341 134.726 20.2547C134.646 20.1707 134.583 20.0774 134.537 19.9747C134.49 19.8674 134.467 19.7531 134.467 19.6317C134.467 19.5104 134.49 19.3961 134.537 19.2887C134.583 19.1767 134.646 19.0811 134.726 19.0017C134.805 18.9177 134.896 18.8524 134.999 18.8057C135.106 18.7591 135.22 18.7357 135.342 18.7357C135.463 18.7357 135.577 18.7591 135.685 18.8057C135.797 18.8524 135.892 18.9177 135.972 19.0017C136.056 19.0811 136.121 19.1767 136.168 19.2887C136.219 19.3961 136.245 19.5104 136.245 19.6317ZM139.314 18.6377V28.9487H138.068V18.6377H139.314Z" fill="#A1A1A1"/>
<path d="M324 0.94873H499V45.9487H324V0.94873Z" fill="black"/>
<path d="M381.046 20.4857C381.004 20.5557 380.957 20.6094 380.906 20.6467C380.859 20.6794 380.801 20.6957 380.731 20.6957C380.651 20.6957 380.558 20.6561 380.451 20.5767C380.343 20.4974 380.208 20.4111 380.045 20.3177C379.886 20.2197 379.692 20.1311 379.464 20.0517C379.24 19.9724 378.967 19.9327 378.645 19.9327C378.341 19.9327 378.073 19.9747 377.84 20.0587C377.611 20.1381 377.417 20.2477 377.259 20.3877C377.105 20.5277 376.988 20.6934 376.909 20.8847C376.829 21.0714 376.79 21.2744 376.79 21.4937C376.79 21.7737 376.857 22.0071 376.993 22.1937C377.133 22.3757 377.315 22.5321 377.539 22.6627C377.767 22.7934 378.024 22.9077 378.309 23.0057C378.598 23.0991 378.892 23.1971 379.191 23.2997C379.494 23.4024 379.788 23.5191 380.073 23.6497C380.362 23.7757 380.619 23.9367 380.843 24.1327C381.071 24.3287 381.253 24.5691 381.389 24.8537C381.529 25.1384 381.599 25.4884 381.599 25.9037C381.599 26.3424 381.524 26.7554 381.375 27.1427C381.225 27.5254 381.006 27.8591 380.717 28.1437C380.432 28.4284 380.08 28.6524 379.66 28.8157C379.244 28.9791 378.771 29.0607 378.239 29.0607C377.585 29.0607 376.993 28.9441 376.461 28.7107C375.929 28.4727 375.474 28.1531 375.096 27.7517L375.488 27.1077C375.525 27.0564 375.569 27.0144 375.621 26.9817C375.677 26.9444 375.737 26.9257 375.803 26.9257C375.863 26.9257 375.931 26.9514 376.006 27.0027C376.085 27.0494 376.174 27.1101 376.272 27.1847C376.37 27.2594 376.482 27.3411 376.608 27.4297C376.734 27.5184 376.876 27.6001 377.035 27.6747C377.198 27.7494 377.382 27.8124 377.588 27.8637C377.793 27.9104 378.024 27.9337 378.281 27.9337C378.603 27.9337 378.89 27.8894 379.142 27.8007C379.394 27.7121 379.606 27.5884 379.779 27.4297C379.956 27.2664 380.091 27.0727 380.185 26.8487C380.278 26.6247 380.325 26.3751 380.325 26.0997C380.325 25.7964 380.255 25.5491 380.115 25.3577C379.979 25.1617 379.8 24.9984 379.576 24.8677C379.352 24.7371 379.095 24.6274 378.806 24.5387C378.516 24.4454 378.222 24.3521 377.924 24.2587C377.625 24.1607 377.331 24.0487 377.042 23.9227C376.752 23.7967 376.496 23.6334 376.272 23.4327C376.048 23.2321 375.866 22.9824 375.726 22.6837C375.59 22.3804 375.523 22.0071 375.523 21.5637C375.523 21.2091 375.59 20.8661 375.726 20.5347C375.866 20.2034 376.066 19.9094 376.328 19.6527C376.594 19.3961 376.918 19.1907 377.301 19.0367C377.688 18.8827 378.131 18.8057 378.631 18.8057C379.191 18.8057 379.699 18.8944 380.157 19.0717C380.619 19.2491 381.025 19.5057 381.375 19.8417L381.046 20.4857ZM387.387 27.8707C387.803 27.8707 388.174 27.8007 388.5 27.6607C388.827 27.5207 389.102 27.3247 389.326 27.0727C389.555 26.8207 389.728 26.5197 389.844 26.1697C389.966 25.8197 390.026 25.4347 390.026 25.0147V18.9177H391.377V25.0147C391.377 25.5934 391.284 26.1301 391.097 26.6247C390.915 27.1194 390.652 27.5487 390.306 27.9127C389.966 28.2721 389.548 28.5544 389.053 28.7597C388.559 28.9651 388.003 29.0677 387.387 29.0677C386.771 29.0677 386.216 28.9651 385.721 28.7597C385.227 28.5544 384.807 28.2721 384.461 27.9127C384.116 27.5487 383.85 27.1194 383.663 26.6247C383.481 26.1301 383.39 25.5934 383.39 25.0147V18.9177H384.741V25.0077C384.741 25.4277 384.8 25.8127 384.916 26.1627C385.038 26.5127 385.21 26.8137 385.434 27.0657C385.663 27.3177 385.941 27.5161 386.267 27.6607C386.599 27.8007 386.972 27.8707 387.387 27.8707ZM397.332 27.8707C397.72 27.8707 398.053 27.8264 398.333 27.7377C398.613 27.6491 398.842 27.5254 399.019 27.3667C399.201 27.2034 399.334 27.0121 399.418 26.7927C399.502 26.5687 399.544 26.3237 399.544 26.0577C399.544 25.5397 399.36 25.1314 398.991 24.8327C398.623 24.5294 398.07 24.3777 397.332 24.3777H395.162V27.8707H397.332ZM395.162 19.9887V23.4117H396.954C397.337 23.4117 397.668 23.3697 397.948 23.2857C398.233 23.2017 398.466 23.0851 398.648 22.9357C398.835 22.7864 398.973 22.6067 399.061 22.3967C399.15 22.1821 399.194 21.9487 399.194 21.6967C399.194 21.1041 399.017 20.6724 398.662 20.4017C398.308 20.1264 397.757 19.9887 397.01 19.9887H395.162ZM397.01 18.9177C397.626 18.9177 398.156 18.9784 398.599 19.0997C399.047 19.2211 399.414 19.3937 399.698 19.6177C399.988 19.8417 400.2 20.1171 400.335 20.4437C400.471 20.7657 400.538 21.1297 400.538 21.5357C400.538 21.7831 400.499 22.0211 400.419 22.2497C400.345 22.4737 400.23 22.6837 400.076 22.8797C399.922 23.0757 399.726 23.2531 399.488 23.4117C399.255 23.5657 398.98 23.6917 398.662 23.7897C399.4 23.9297 399.953 24.1934 400.321 24.5807C400.695 24.9634 400.881 25.4674 400.881 26.0927C400.881 26.5174 400.802 26.9047 400.643 27.2547C400.489 27.6047 400.261 27.9057 399.957 28.1577C399.659 28.4097 399.29 28.6057 398.851 28.7457C398.413 28.8811 397.913 28.9487 397.353 28.9487H393.811V18.9177H397.01ZM407.993 20.4857C407.951 20.5557 407.904 20.6094 407.853 20.6467C407.806 20.6794 407.748 20.6957 407.678 20.6957C407.599 20.6957 407.505 20.6561 407.398 20.5767C407.291 20.4974 407.155 20.4111 406.992 20.3177C406.833 20.2197 406.64 20.1311 406.411 20.0517C406.187 19.9724 405.914 19.9327 405.592 19.9327C405.289 19.9327 405.02 19.9747 404.787 20.0587C404.558 20.1381 404.365 20.2477 404.206 20.3877C404.052 20.5277 403.935 20.6934 403.856 20.8847C403.777 21.0714 403.737 21.2744 403.737 21.4937C403.737 21.7737 403.805 22.0071 403.94 22.1937C404.08 22.3757 404.262 22.5321 404.486 22.6627C404.715 22.7934 404.971 22.9077 405.256 23.0057C405.545 23.0991 405.839 23.1971 406.138 23.2997C406.441 23.4024 406.735 23.5191 407.02 23.6497C407.309 23.7757 407.566 23.9367 407.79 24.1327C408.019 24.3287 408.201 24.5691 408.336 24.8537C408.476 25.1384 408.546 25.4884 408.546 25.9037C408.546 26.3424 408.471 26.7554 408.322 27.1427C408.173 27.5254 407.953 27.8591 407.664 28.1437C407.379 28.4284 407.027 28.6524 406.607 28.8157C406.192 28.9791 405.718 29.0607 405.186 29.0607C404.533 29.0607 403.94 28.9441 403.408 28.7107C402.876 28.4727 402.421 28.1531 402.043 27.7517L402.435 27.1077C402.472 27.0564 402.517 27.0144 402.568 26.9817C402.624 26.9444 402.685 26.9257 402.75 26.9257C402.811 26.9257 402.878 26.9514 402.953 27.0027C403.032 27.0494 403.121 27.1101 403.219 27.1847C403.317 27.2594 403.429 27.3411 403.555 27.4297C403.681 27.5184 403.823 27.6001 403.982 27.6747C404.145 27.7494 404.33 27.8124 404.535 27.8637C404.74 27.9104 404.971 27.9337 405.228 27.9337C405.55 27.9337 405.837 27.8894 406.089 27.8007C406.341 27.7121 406.553 27.5884 406.726 27.4297C406.903 27.2664 407.039 27.0727 407.132 26.8487C407.225 26.6247 407.272 26.3751 407.272 26.0997C407.272 25.7964 407.202 25.5491 407.062 25.3577C406.927 25.1617 406.747 24.9984 406.523 24.8677C406.299 24.7371 406.042 24.6274 405.753 24.5387C405.464 24.4454 405.17 24.3521 404.871 24.2587C404.572 24.1607 404.278 24.0487 403.989 23.9227C403.7 23.7967 403.443 23.6334 403.219 23.4327C402.995 23.2321 402.813 22.9824 402.673 22.6837C402.538 22.3804 402.47 22.0071 402.47 21.5637C402.47 21.2091 402.538 20.8661 402.673 20.5347C402.813 20.2034 403.014 19.9094 403.275 19.6527C403.541 19.3961 403.865 19.1907 404.248 19.0367C404.635 18.8827 405.079 18.8057 405.578 18.8057C406.138 18.8057 406.647 18.8944 407.104 19.0717C407.566 19.2491 407.972 19.5057 408.322 19.8417L407.993 20.4857ZM417.506 26.8767C417.58 26.8767 417.646 26.9071 417.702 26.9677L418.241 27.5487C417.83 28.0247 417.331 28.3957 416.743 28.6617C416.159 28.9277 415.452 29.0607 414.622 29.0607C413.903 29.0607 413.25 28.9371 412.662 28.6897C412.074 28.4377 411.572 28.0877 411.157 27.6397C410.741 27.1871 410.419 26.6457 410.191 26.0157C409.962 25.3857 409.848 24.6927 409.848 23.9367C409.848 23.1807 409.967 22.4877 410.205 21.8577C410.443 21.2277 410.776 20.6864 411.206 20.2337C411.64 19.7811 412.158 19.4311 412.76 19.1837C413.362 18.9317 414.027 18.8057 414.755 18.8057C415.469 18.8057 416.099 18.9201 416.645 19.1487C417.191 19.3774 417.671 19.6877 418.087 20.0797L417.639 20.7027C417.611 20.7494 417.573 20.7891 417.527 20.8217C417.485 20.8497 417.426 20.8637 417.352 20.8637C417.268 20.8637 417.165 20.8194 417.044 20.7307C416.922 20.6374 416.764 20.5347 416.568 20.4227C416.372 20.3107 416.127 20.2104 415.833 20.1217C415.539 20.0284 415.177 19.9817 414.748 19.9817C414.23 19.9817 413.756 20.0727 413.327 20.2547C412.897 20.4321 412.526 20.6911 412.214 21.0317C411.906 21.3724 411.665 21.7877 411.493 22.2777C411.32 22.7677 411.234 23.3207 411.234 23.9367C411.234 24.5621 411.322 25.1197 411.5 25.6097C411.682 26.0997 411.927 26.5151 412.235 26.8557C412.547 27.1917 412.914 27.4484 413.334 27.6257C413.758 27.8031 414.216 27.8917 414.706 27.8917C415.004 27.8917 415.273 27.8754 415.511 27.8427C415.753 27.8054 415.975 27.7494 416.176 27.6747C416.381 27.6001 416.57 27.5067 416.743 27.3947C416.92 27.2781 417.095 27.1404 417.268 26.9817C417.347 26.9117 417.426 26.8767 417.506 26.8767ZM422.594 23.7757C422.986 23.7757 423.332 23.7291 423.63 23.6357C423.934 23.5377 424.186 23.4024 424.386 23.2297C424.592 23.0524 424.746 22.8424 424.848 22.5997C424.951 22.3571 425.002 22.0887 425.002 21.7947C425.002 21.1974 424.806 20.7471 424.414 20.4437C424.022 20.1404 423.434 19.9887 422.65 19.9887H421.166V23.7757H422.594ZM427.228 28.9487H426.024C425.777 28.9487 425.595 28.8531 425.478 28.6617L422.874 25.0777C422.795 24.9657 422.709 24.8864 422.615 24.8397C422.527 24.7884 422.387 24.7627 422.195 24.7627H421.166V28.9487H419.815V18.9177H422.65C423.285 18.9177 423.833 18.9831 424.295 19.1137C424.757 19.2397 425.138 19.4241 425.436 19.6667C425.74 19.9094 425.964 20.2034 426.108 20.5487C426.253 20.8894 426.325 21.2721 426.325 21.6967C426.325 22.0514 426.269 22.3827 426.157 22.6907C426.045 22.9987 425.882 23.2764 425.667 23.5237C425.457 23.7664 425.198 23.9741 424.89 24.1467C424.587 24.3194 424.242 24.4501 423.854 24.5387C424.027 24.6367 424.176 24.7791 424.302 24.9657L427.228 28.9487ZM429.951 28.9487H428.593V18.9177H429.951V28.9487ZM436.037 27.8707C436.425 27.8707 436.758 27.8264 437.038 27.7377C437.318 27.6491 437.547 27.5254 437.724 27.3667C437.906 27.2034 438.039 27.0121 438.123 26.7927C438.207 26.5687 438.249 26.3237 438.249 26.0577C438.249 25.5397 438.065 25.1314 437.696 24.8327C437.328 24.5294 436.775 24.3777 436.037 24.3777H433.867V27.8707H436.037ZM433.867 19.9887V23.4117H435.659C436.042 23.4117 436.373 23.3697 436.653 23.2857C436.938 23.2017 437.171 23.0851 437.353 22.9357C437.54 22.7864 437.678 22.6067 437.766 22.3967C437.855 22.1821 437.899 21.9487 437.899 21.6967C437.899 21.1041 437.722 20.6724 437.367 20.4017C437.013 20.1264 436.462 19.9887 435.715 19.9887H433.867ZM435.715 18.9177C436.331 18.9177 436.861 18.9784 437.304 19.0997C437.752 19.2211 438.119 19.3937 438.403 19.6177C438.693 19.8417 438.905 20.1171 439.04 20.4437C439.176 20.7657 439.243 21.1297 439.243 21.5357C439.243 21.7831 439.204 22.0211 439.124 22.2497C439.05 22.4737 438.935 22.6837 438.781 22.8797C438.627 23.0757 438.431 23.2531 438.193 23.4117C437.96 23.5657 437.685 23.6917 437.367 23.7897C438.105 23.9297 438.658 24.1934 439.026 24.5807C439.4 24.9634 439.586 25.4674 439.586 26.0927C439.586 26.5174 439.507 26.9047 439.348 27.2547C439.194 27.6047 438.966 27.9057 438.662 28.1577C438.364 28.4097 437.995 28.6057 437.556 28.7457C437.118 28.8811 436.618 28.9487 436.058 28.9487H432.516V18.9177H435.715ZM447.755 27.8427L447.748 28.9487H441.567V18.9177H447.748V20.0237H442.925V23.3557H446.831V24.4197H442.925V27.8427H447.755Z" fill="white"/>
</svg>
